  0
SECTION
  2
HEADER
999
BEZARC 1.0.1
  9
$FASTZOOM
 70
0
  9
$FILLMODE
 70
1
  9
$SPLINETYPE
 70
5
  0
ENDSEC
  0
SECTION
  2
ENTITIES
  0
POLYLINE
  8
0
 66
1
 70
1
  0
VERTEX
  8
0
 10
7.950239
 20
4.564706
 42
0.203513
  0
VERTEX
  8
0
 10
7.918124
 20
4.580865
 42
0.05258
  0
VERTEX
  8
0
 10
7.879487
 20
4.580062
 42
-0.012309
  0
VERTEX
  8
0
 10
7.863936
 20
4.578885
 42
-0.053262
  0
VERTEX
  8
0
 10
7.851303
 20
4.579442
 42
-0.191971
  0
VERTEX
  8
0
 10
7.850569
 20
4.620733
 42
-0.073196
  0
VERTEX
  8
0
 10
7.87148
 20
4.653817
 42
0.020451
  0
VERTEX
  8
0
 10
7.884988
 20
4.672317
 42
0.060326
  0
VERTEX
  8
0
 10
7.895508
 20
4.693114
 42
-0.077784
  0
VERTEX
  8
0
 10
7.873599
 20
4.810527
 42
-0.020852
  0
VERTEX
  8
0
 10
7.873923
 20
4.943548
 42
0.019535
  0
VERTEX
  8
0
 10
7.874458
 20
5.072021
  0
VERTEX
  8
0
 10
7.548178
 20
5.08044
  0
VERTEX
  8
0
 10
7.562913
 20
5.808783
  0
VERTEX
  8
0
 10
7.525022
 20
5.85299
 42
0.003466
  0
VERTEX
  8
0
 10
7.236443
 20
5.898676
 42
-0.014664
  0
VERTEX
  8
0
 10
6.661957
 20
5.998236
 42
-0.0111
  0
VERTEX
  8
0
 10
6.554301
 20
6.227397
 42
0.017298
  0
VERTEX
  8
0
 10
6.417772
 20
6.511865
 42
0.142127
  0
VERTEX
  8
0
 10
6.395264
 20
6.55636
 42
0.043749
  0
VERTEX
  8
0
 10
6.35765
 20
6.590254
 42
-0.032323
  0
VERTEX
  8
0
 10
6.328978
 20
6.615205
 42
-0.133071
  0
VERTEX
  8
0
 10
6.312521
 20
6.642378
 42
-0.00275
  0
VERTEX
  8
0
 10
6.302394
 20
6.647875
 42
0.047516
  0
VERTEX
  8
0
 10
6.258316
 20
6.668496
 42
0.131434
  0
VERTEX
  8
0
 10
6.207268
 20
6.671849
 42
-0.160893
  0
VERTEX
  8
0
 10
6.128641
 20
6.648771
 42
-0.047981
  0
VERTEX
  8
0
 10
6.041783
 20
6.660505
 42
0.018417
  0
VERTEX
  8
0
 10
5.983621
 20
6.670586
 42
0.05718
  0
VERTEX
  8
0
 10
5.925193
 20
6.671849
 42
0.02701
  0
VERTEX
  8
0
 10
5.915475
 20
6.676476
 42
-0.025446
  0
VERTEX
  8
0
 10
5.905902
 20
6.681014
 42
-0.088943
  0
VERTEX
  8
0
 10
5.898156
 20
6.687074
 42
-0.146072
  0
VERTEX
  8
0
 10
5.894132
 20
6.696151
 42
-0.109196
  0
VERTEX
  8
0
 10
5.895722
 20
6.709739
 42
-0.000155
  0
VERTEX
  8
0
 10
5.894415
 20
6.711193
 42
0.05961
  0
VERTEX
  8
0
 10
5.85977
 20
6.743817
 42
0.199579
  0
VERTEX
  8
0
 10
5.811521
 20
6.75605
 42
0.103497
  0
VERTEX
  8
0
 10
5.786525
 20
6.743209
 42
0.035747
  0
VERTEX
  8
0
 10
5.766676
 20
6.724412
 42
-0.043126
  0
VERTEX
  8
0
 10
5.746172
 20
6.705319
 42
-0.134431
  0
VERTEX
  8
0
 10
5.721004
 20
6.695006
 42
0.036748
  0
VERTEX
  8
0
 10
5.71432
 20
6.695234
 42
0.009545
  0
VERTEX
  8
0
 10
5.70667
 20
6.694831
 42
-0.023498
  0
VERTEX
  8
0
 10
5.693931
 20
6.694396
 42
-0.09553
  0
VERTEX
  8
0
 10
5.682954
 20
6.696445
 42
-0.219007
  0
VERTEX
  8
0
 10
5.676367
 20
6.703519
 42
-0.141044
  0
VERTEX
  8
0
 10
5.676799
 20
6.71816
 42
0.290242
  0
VERTEX
  8
0
 10
5.633383
 20
6.764996
 42
0.106861
  0
VERTEX
  8
0
 10
5.569442
 20
6.770785
 42
0.123383
  0
VERTEX
  8
0
 10
5.551738
 20
6.756824
 42
0.035337
  0
VERTEX
  8
0
 10
5.538365
 20
6.737092
 42
-0.023413
  0
VERTEX
  8
0
 10
5.528776
 20
6.722418
 42
-0.095139
  0
VERTEX
  8
0
 10
5.518145
 20
6.712086
 42
-0.184398
  0
VERTEX
  8
0
 10
5.504869
 20
6.709524
 42
-0.121704
  0
VERTEX
  8
0
 10
5.487346
 20
6.71816
  0
VERTEX
  8
0
 10
5.502081
 20
6.732894
 42
0.258576
  0
VERTEX
  8
0
 10
4.759003
 20
7.377035
 42
0.08479
  0
VERTEX
  8
0
 10
4.50031
 20
7.391232
 42
0.031947
  0
VERTEX
  8
0
 10
4.261034
 20
7.345759
 42
-0.029698
  0
VERTEX
  8
0
 10
4.03066
 20
7.301254
  0
VERTEX
  8
0
 10
4.0475
 20
8.050647
  0
VERTEX
  8
0
 10
4.03066
 20
8.082224
 42
0.067971
  0
VERTEX
  8
0
 10
3.960931
 20
8.08959
 42
0.093633
  0
VERTEX
  8
0
 10
3.926757
 20
8.08163
 42
0.161546
  0
VERTEX
  8
0
 10
3.902253
 20
8.059067
  0
VERTEX
  8
0
 10
3.879097
 20
7.254943
 42
-0.011532
  0
VERTEX
  8
0
 10
3.624338
 20
7.178654
 42
0.007411
  0
VERTEX
  8
0
 10
3.418093
 20
7.118117
 42
-0.125299
  0
VERTEX
  8
0
 10
3.396943
 20
7.141935
 42
-0.043581
  0
VERTEX
  8
0
 10
3.385518
 20
7.170584
 42
0.04193
  0
VERTEX
  8
0
 10
3.375138
 20
7.196885
 42
0.134195
  0
VERTEX
  8
0
 10
3.357047
 20
7.217053
 42
0.071009
  0
VERTEX
  8
0
 10
2.965373
 20
7.189888
 42
0.025103
  0
VERTEX
  8
0
 10
2.597659
 20
7.089918
 42
-0.017076
  0
VERTEX
  8
0
 10
2.296108
 20
7.004444
  0
VERTEX
  8
0
 10
0.923625
 20
6.604487
 42
0.13697
  0
VERTEX
  8
0
 10
0.880471
 20
6.564492
 42
0.058076
  0
VERTEX
  8
0
 10
0.856264
 20
6.511865
 42
0.263009
  0
VERTEX
  8
0
 10
0.88961
 20
6.501244
 42
0.060539
  0
VERTEX
  8
0
 10
0.929588
 20
6.514154
 42
-0.02833
  0
VERTEX
  8
0
 10
0.957656
 20
6.524471
 42
-0.116524
  0
VERTEX
  8
0
 10
0.98307
 20
6.526606
 42
-0.205428
  0
VERTEX
  8
0
 10
1.003408
 20
6.51247
 42
-0.108652
  0
VERTEX
  8
0
 10
1.016246
 20
6.473975
 42
0.054853
  0
VERTEX
  8
0
 10
0.844948
 20
6.361093
 42
0.099133
  0
VERTEX
  8
0
 10
0.713121
 20
6.202425
 42
0.133187
  0
VERTEX
  8
0
 10
0.650496
 20
5.758526
 42
0.17646
  0
VERTEX
  8
0
 10
0.856264
 20
5.36041
 42
-0.080598
  0
VERTEX
  8
0
 10
0.795168
 20
5.346921
 42
-0.022825
  0
VERTEX
  8
0
 10
0.727753
 20
5.345676
 42
0.02369
  0
VERTEX
  8
0
 10
0.662026
 20
5.344421
 42
0.09065
  0
VERTEX
  8
0
 10
0.605764
 20
5.33094
 42
0.116061
  0
VERTEX
  8
0
 10
0.586292
 20
5.293049
 42
0.087292
  0
VERTEX
  8
0
 10
0.582608
 20
5.255157
 42
0.274777
  0
VERTEX
  8
0
 10
0.614727
 20
5.195868
 42
0.07693
  0
VERTEX
  8
0
 10
0.680199
 20
5.171476
 42
-0.012696
  0
VERTEX
  8
0
 10
0.7047
 20
5.164642
 42
-0.053723
  0
VERTEX
  8
0
 10
0.649962
 20
5.15629
 42
-0.016295
  0
VERTEX
  8
0
 10
0.591979
 20
5.155455
 42
0.014577
  0
VERTEX
  8
0
 10
0.537346
 20
5.154794
 42
0.048129
  0
VERTEX
  8
0
 10
0.485776
 20
5.147801
 42
0.151905
  0
VERTEX
  8
0
 10
0.44657
 20
5.116226
 42
0.06811
  0
VERTEX
  8
0
 10
0.424731
 20
5.072021
 42
0.154393
  0
VERTEX
  8
0
 10
0.422362
 20
4.975715
 42
0.075901
  0
VERTEX
  8
0
 10
0.462621
 20
4.882567
 42
-0.000105
  0
VERTEX
  8
0
 10
0.46127
 20
4.861041
 42
0.020859
  0
VERTEX
  8
0
 10
0.451478
 20
4.586522
 42
0.051172
  0
VERTEX
  8
0
 10
0.485776
 20
4.299472
 42
0.114468
  0
VERTEX
  8
0
 10
0.499421
 20
4.264278
 42
0.16217
  0
VERTEX
  8
0
 10
0.521287
 20
4.248688
 42
0.09236
  0
VERTEX
  8
0
 10
0.54897
 20
4.246222
 42
0.024573
  0
VERTEX
  8
0
 10
0.580066
 20
4.250404
 42
-0.062999
  0
VERTEX
  8
0
 10
0.631404
 20
4.254706
 42
-0.212328
  0
VERTEX
  8
0
 10
0.675231
 20
4.232111
 42
0.026929
  0
VERTEX
  8
0
 10
0.965365
 20
4.240132
 42
-0.003899
  0
VERTEX
  8
0
 10
1.083607
 20
4.246846
  0
VERTEX
  8
0
 10
1.113078
 20
4.276317
 42
0.112239
  0
VERTEX
  8
0
 10
1.132063
 20
4.321452
 42
0.030137
  0
VERTEX
  8
0
 10
1.138929
 20
4.375185
 42
-0.0199
  0
VERTEX
  8
0
 10
1.143798
 20
4.4179
 42
-0.074542
  0
VERTEX
  8
0
 10
1.154839
 20
4.454551
 42
-0.150452
  0
VERTEX
  8
0
 10
1.178302
 20
4.479954
 42
-0.135683
  0
VERTEX
  8
0
 10
1.220435
 20
4.488925
 42
0.214813
  0
VERTEX
  8
0
 10
1.247575
 20
4.498867
 42
0.06815
  0
VERTEX
  8
0
 10
1.265026
 20
4.522985
 42
-0.049928
  0
VERTEX
  8
0
 10
1.280268
 20
4.54506
 42
-0.161737
  0
VERTEX
  8
0
 10
1.302532
 20
4.558392
 42
0.029051
  0
VERTEX
  8
0
 10
1.35505
 20
4.562798
 42
-0.074047
  0
VERTEX
  8
0
 10
1.445786
 20
4.565032
 42
-0.254504
  0
VERTEX
  8
0
 10
1.51514
 20
4.512081
 42
-0.114085
  0
VERTEX
  8
0
 10
1.543534
 20
4.511967
 42
-0.207712
  0
VERTEX
  8
0
 10
1.557437
 20
4.500963
 42
-0.110672
  0
VERTEX
  8
0
 10
1.561668
 20
4.4825
 42
-0.026475
  0
VERTEX
  8
0
 10
1.561044
 20
4.460014
 42
0.02277
  0
VERTEX
  8
0
 10
1.560344
 20
4.438053
 42
0.084961
  0
VERTEX
  8
0
 10
1.56374
 20
4.418503
 42
0.167469
  0
VERTEX
  8
0
 10
1.575362
 20
4.404307
 42
0.132732
  0
VERTEX
  8
0
 10
1.599342
 20
4.398408
 42
0.295664
  0
VERTEX
  8
0
 10
1.738231
 20
4.279512
 42
0.068621
  0
VERTEX
  8
0
 10
1.952501
 20
4.279844
 42
-0.010667
  0
VERTEX
  8
0
 10
2.038261
 20
4.286284
 42
-0.03939
  0
VERTEX
  8
0
 10
2.115076
 20
4.284736
  0
VERTEX
  8
0
 10
2.197172
 20
4.345782
 42
-0.009757
  0
VERTEX
  8
0
 10
2.19926
 20
4.343579
 42
0.063686
  0
VERTEX
  8
0
 10
2.204942
 20
4.338365
 42
0.238087
  0
VERTEX
  8
0
 10
2.211907
 20
4.337362
 42
-0.094743
  0
VERTEX
  8
0
 10
2.214473
 20
4.304142
 42
-0.027574
  0
VERTEX
  8
0
 10
2.20875
 20
4.268948
 42
0.027572
  0
VERTEX
  8
0
 10
2.203027
 20
4.233755
 42
0.094735
  0
VERTEX
  8
0
 10
2.205592
 20
4.200535
  0
VERTEX
  8
0
 10
2.485562
 20
4.185799
 42
0.082844
  0
VERTEX
  8
0
 10
2.552924
 20
3.844783
 42
0.281579
  0
VERTEX
  8
0
 10
2.685062
 20
3.708316
 42
0.08529
  0
VERTEX
  8
0
 10
2.884492
 20
3.706788
 42
-0.017046
  0
VERTEX
  8
0
 10
2.983759
 20
3.714417
 42
-0.058197
  0
VERTEX
  8
0
 10
3.077078
 20
3.707956
  0
VERTEX
  8
0
 10
3.106549
 20
3.663751
 42
0.145144
  0
VERTEX
  8
0
 10
3.300279
 20
3.595792
 42
0.04267
  0
VERTEX
  8
0
 10
3.518876
 20
3.603368
 42
-0.041791
  0
VERTEX
  8
0
 10
3.735954
 20
3.611124
 42
0.152715
  0
VERTEX
  8
0
 10
3.830411
 20
3.692585
 42
0.055199
  0
VERTEX
  8
0
 10
3.879333
 20
3.80151
 42
-0.036904
  0
VERTEX
  8
0
 10
3.916987
 20
3.891093
 42
0.024869
  0
VERTEX
  8
0
 10
4.07686
 20
3.861716
 42
-0.038634
  0
VERTEX
  8
0
 10
4.274844
 20
3.821628
 42
-0.08998
  0
VERTEX
  8
0
 10
4.318283
 20
3.848315
 42
-0.029526
  0
VERTEX
  8
0
 10
4.367006
 20
3.863973
 42
0.037884
  0
VERTEX
  8
0
 10
4.420266
 20
3.881708
 42
0.11839
  0
VERTEX
  8
0
 10
4.464297
 20
3.91425
 42
-0.052635
  0
VERTEX
  8
0
 10
4.479309
 20
3.911357
 42
-0.016269
  0
VERTEX
  8
0
 10
4.494382
 20
3.906259
 42
0.062484
  0
VERTEX
  8
0
 10
4.524136
 20
3.898162
 42
0.180332
  0
VERTEX
  8
0
 10
4.554814
 20
3.905829
 42
0.102526
  0
VERTEX
  8
0
 10
4.697957
 20
3.314312
 42
0.000379
  0
VERTEX
  8
0
 10
4.714422
 20
3.294801
 42
-0.011212
  0
VERTEX
  8
0
 10
4.796893
 20
3.194326
 42
0.130983
  0
VERTEX
  8
0
 10
4.985291
 20
3.146257
 42
0.040531
  0
VERTEX
  8
0
 10
5.184203
 20
3.164601
 42
-0.01008
  0
VERTEX
  8
0
 10
5.281051
 20
3.177486
 42
0.125217
  0
VERTEX
  8
0
 10
5.429004
 20
3.370248
 42
0.042002
  0
VERTEX
  8
0
 10
5.502947
 20
3.59693
 42
-0.000348
  0
VERTEX
  8
0
 10
5.508396
 20
3.617439
 42
-0.035973
  0
VERTEX
  8
0
 10
6.231933
 20
3.636117
 42
0.021735
  0
VERTEX
  8
0
 10
6.828254
 20
3.640594
 42
-0.004066
  0
VERTEX
  8
0
 10
6.846061
 20
3.59382
 42
0.053381
  0
VERTEX
  8
0
 10
6.927643
 20
3.41585
 42
0.171494
  0
VERTEX
  8
0
 10
7.078754
 20
3.291158
 42
-0.036468
  0
VERTEX
  8
0
 10
7.234525
 20
3.299344
 42
0.03647
  0
VERTEX
  8
0
 10
7.390298
 20
3.30753
 42
0.114216
  0
VERTEX
  8
0
 10
7.533442
 20
3.360624
 42
0.130939
  0
VERTEX
  8
0
 10
7.706318
 20
3.676117
 42
0.044529
  0
VERTEX
  8
0
 10
7.760786
 20
4.034236
 42
-0.019034
  0
VERTEX
  8
0
 10
7.815194
 20
4.044847
 42
0.054461
  0
VERTEX
  8
0
 10
7.905772
 20
4.066865
 42
0.188395
  0
VERTEX
  8
0
 10
7.97129
 20
4.124753
  0
VERTEX
  8
0
 10
7.97971
 20
4.5205
  0
SEQEND
  8
0
  0
POLYLINE
  8
0
 66
1
 70
1
  0
VERTEX
  8
0
 10
7.609224
 20
5.035814
 42
-0.013934
  0
VERTEX
  8
0
 10
7.744983
 20
5.034438
 42
0.007067
  0
VERTEX
  8
0
 10
7.83919
 20
5.032619
  0
VERTEX
  8
0
 10
7.836567
 20
4.80005
  0
VERTEX
  8
0
 10
7.609224
 20
4.808469
  0
SEQEND
  8
0
  0
POLYLINE
  8
0
 66
1
 70
1
  0
VERTEX
  8
0
 10
7.548178
 20
4.762581
 42
0.040844
  0
VERTEX
  8
0
 10
7.751087
 20
4.754066
 42
-0.00778
  0
VERTEX
  8
0
 10
7.851303
 20
4.754158
  0
VERTEX
  8
0
 10
7.851303
 20
4.686797
  0
VERTEX
  8
0
 10
7.539757
 20
4.678379
 42
0.118445
  0
VERTEX
  8
0
 10
7.548106
 20
4.704755
 42
0.034635
  0
VERTEX
  8
0
 10
7.548265
 20
4.734528
 42
-0.027598
  0
SEQEND
  8
0
  0
POLYLINE
  8
0
 66
1
 70
1
  0
VERTEX
  8
0
 10
6.3041
 20
6.572913
  0
VERTEX
  8
0
 10
5.729425
 20
6.625538
  0
VERTEX
  8
0
 10
5.71469
 20
6.610803
 42
0.005929
  0
VERTEX
  8
0
 10
5.789116
 20
6.424804
 42
-0.021737
  0
VERTEX
  8
0
 10
5.938736
 20
6.026594
 42
0.048617
  0
VERTEX
  8
0
 10
6.078914
 20
5.998584
 42
0.018283
  0
VERTEX
  8
0
 10
6.214462
 20
5.99063
 42
-0.032201
  0
VERTEX
  8
0
 10
6.411457
 20
5.975081
 42
-0.04491
  0
VERTEX
  8
0
 10
6.43378
 20
5.972785
 42
-0.013715
  0
VERTEX
  8
0
 10
6.456737
 20
5.967713
 42
0.057382
  0
VERTEX
  8
0
 10
6.503684
 20
5.960112
 42
0.178154
  0
VERTEX
  8
0
 10
6.548285
 20
5.975081
 42
0.133673
  0
VERTEX
  8
0
 10
6.354358
 20
6.12638
 42
0.081193
  0
VERTEX
  8
0
 10
6.259894
 20
6.149799
 42
-0.112944
  0
VERTEX
  8
0
 10
6.135489
 20
6.246179
 42
-0.038957
  0
VERTEX
  8
0
 10
6.047948
 20
6.374117
 42
0.021439
  0
VERTEX
  8
0
 10
5.98409
 20
6.472207
 42
0.064154
  0
VERTEX
  8
0
 10
5.904143
 20
6.558176
  0
VERTEX
  8
0
 10
5.904143
 20
6.581331
  0
VERTEX
  8
0
 10
6.131487
 20
6.558176
 42
0.132097
  0
VERTEX
  8
0
 10
6.151337
 20
6.442589
 42
0.038212
  0
VERTEX
  8
0
 10
6.211101
 20
6.333823
 42
-0.00108
  0
VERTEX
  8
0
 10
6.222004
 20
6.316099
 42
0.270581
  0
VERTEX
  8
0
 10
6.236119
 20
6.316517
 42
0.072984
  0
VERTEX
  8
0
 10
6.247618
 20
6.326781
 42
-0.009034
  0
VERTEX
  8
0
 10
6.251474
 20
6.330832
 42
-0.13012
  0
VERTEX
  8
0
 10
6.244435
 20
6.350501
 42
-0.037616
  0
VERTEX
  8
0
 10
6.244106
 20
6.372933
 42
0.037616
  0
VERTEX
  8
0
 10
6.243778
 20
6.395365
 42
0.130113
  0
VERTEX
  8
0
 10
6.236739
 20
6.415035
 42
-0.282566
  0
VERTEX
  8
0
 10
6.305036
 20
6.398428
 42
-0.078953
  0
VERTEX
  8
0
 10
6.346669
 20
6.334107
 42
0.018057
  0
VERTEX
  8
0
 10
6.365819
 20
6.298964
 42
0.063984
  0
VERTEX
  8
0
 10
6.388301
 20
6.269786
 42
0.081749
  0
VERTEX
  8
0
 10
6.429282
 20
6.180693
 42
0.025449
  0
VERTEX
  8
0
 10
6.489899
 20
6.099795
 42
-0.01724
  0
VERTEX
  8
0
 10
6.539722
 20
6.034801
 42
-0.056604
  0
VERTEX
  8
0
 10
6.577756
 20
5.96666
 42
0.044649
  0
VERTEX
  8
0
 10
6.686427
 20
5.936139
 42
0.100318
  0
VERTEX
  8
0
 10
6.796679
 20
5.937192
  0
VERTEX
  8
0
 10
7.501867
 20
5.823518
  0
VERTEX
  8
0
 10
7.516601
 20
5.800362
 42
0.012256
  0
VERTEX
  8
0
 10
7.510555
 20
5.317012
 42
-0.021752
  0
VERTEX
  8
0
 10
7.495551
 20
4.709954
  0
VERTEX
  8
0
 10
7.478711
 20
4.693114
 42
0.00617
  0
VERTEX
  8
0
 10
6.228733
 20
4.668433
 42
-0.000884
  0
VERTEX
  8
0
 10
5.73574
 20
4.655222
 42
0.001749
  0
VERTEX
  8
0
 10
5.73609
 20
4.999503
 42
-0.008543
  0
VERTEX
  8
0
 10
5.74416
 20
5.808783
 42
-0.068064
  0
VERTEX
  8
0
 10
7.487131
 20
5.777207
 42
-0.026047
  0
VERTEX
  8
0
 10
7.49346
 20
5.78409
 42
0.082008
  0
VERTEX
  8
0
 10
7.502092
 20
5.794861
 42
0.22944
  0
VERTEX
  8
0
 10
7.501867
 20
5.808783
 42
0.058718
  0
VERTEX
  8
0
 10
5.752581
 20
5.85299
 42
0.245671
  0
VERTEX
  8
0
 10
5.696228
 20
5.79607
 42
0.082891
  0
VERTEX
  8
0
 10
5.691689
 20
5.714641
 42
-0.037446
  0
VERTEX
  8
0
 10
5.691535
 20
5.6488
  0
VERTEX
  8
0
 10
5.683114
 20
4.655222
  0
VERTEX
  8
0
 10
5.668379
 20
4.655222
 42
0.052161
  0
VERTEX
  8
0
 10
5.61983
 20
4.804993
 42
-0.036519
  0
VERTEX
  8
0
 10
5.577028
 20
4.928067
 42
-0.097812
  0
VERTEX
  8
0
 10
5.569442
 20
5.065704
 42
0.232361
  0
VERTEX
  8
0
 10
5.543504
 20
5.096207
 42
0.063141
  0
VERTEX
  8
0
 10
5.502446
 20
5.108102
 42
-0.00298
  0
VERTEX
  8
0
 10
5.493661
 20
5.109911
 42
-0.099291
  0
VERTEX
  8
0
 10
5.485608
 20
5.124023
 42
-0.369333
  0
VERTEX
  8
0
 10
5.488096
 20
5.130847
 42
-0.117997
  0
VERTEX
  8
0
 10
5.498282
 20
5.132771
 42
-0.019755
  0
VERTEX
  8
0
 10
5.513325
 20
5.13218
 42
0.023589
  0
VERTEX
  8
0
 10
5.534
 20
5.131517
 42
0.09195
  0
VERTEX
  8
0
 10
5.552571
 20
5.134922
 42
0.217786
  0
VERTEX
  8
0
 10
5.56397
 20
5.146649
 42
0.150137
  0
VERTEX
  8
0
 10
5.563126
 20
5.170956
  0
VERTEX
  8
0
 10
5.563126
 20
5.573019
 42
0.273541
  0
VERTEX
  8
0
 10
5.502081
 20
5.60249
 42
-0.001747
  0
VERTEX
  8
0
 10
5.385968
 20
5.609978
 42
0.047732
  0
VERTEX
  8
0
 10
4.750582
 20
5.61091
 42
0.115594
  0
VERTEX
  8
0
 10
4.712297
 20
5.619264
 42
0.079633
  0
VERTEX
  8
0
 10
4.666907
 20
5.613014
 42
0.147401
  0
VERTEX
  8
0
 10
4.633358
 20
5.592556
 42
0.301296
  0
VERTEX
  8
0
 10
4.630596
 20
5.558285
 42
-0.021788
  0
VERTEX
  8
0
 10
4.609312
 20
5.586585
 42
0.021788
  0
VERTEX
  8
0
 10
4.588027
 20
5.614885
 42
0.059703
  0
VERTEX
  8
0
 10
4.561129
 20
5.640381
  0
VERTEX
  8
0
 10
4.554814
 20
5.634064
 42
-0.122006
  0
VERTEX
  8
0
 10
4.487047
 20
5.705959
 42
-0.049146
  0
VERTEX
  8
0
 10
4.452787
 20
5.78929
 42
0.039943
  0
VERTEX
  8
0
 10
4.422079
 20
5.866568
 42
0.101935
  0
VERTEX
  8
0
 10
4.365361
 20
5.937192
  0
VERTEX
  8
0
 10
4.796893
 20
5.951926
  0
VERTEX
  8
0
 10
4.811629
 20
5.96666
  0
VERTEX
  8
0
 10
4.759003
 20
6.490815
 42
-0.07172
  0
VERTEX
  8
0
 10
4.74412
 20
6.50442
 42
-0.087185
  0
VERTEX
  8
0
 10
4.736782
 20
6.517651
 42
-0.097823
  0
VERTEX
  8
0
 10
4.734613
 20
6.542163
 42
0.042944
  0
VERTEX
  8
0
 10
4.734533
 20
6.554924
 42
0.140569
  0
VERTEX
  8
0
 10
4.73016
 20
6.565938
 42
0.127998
  0
VERTEX
  8
0
 10
4.717271
 20
6.574855
 42
0.059392
  0
VERTEX
  8
0
 10
4.691642
 20
6.581331
 42
0.000912
  0
VERTEX
  8
0
 10
4.604189
 20
6.588588
 42
-0.002651
  0
VERTEX
  8
0
 10
4.417986
 20
6.604487
 42
-0.075112
  0
VERTEX
  8
0
 10
4.539475
 20
6.641598
 42
-0.023633
  0
VERTEX
  8
0
 10
4.668974
 20
6.654718
 42
0.014135
  0
VERTEX
  8
0
 10
4.767422
 20
6.663429
 42
0.278552
  0
VERTEX
  8
0
 10
4.768454
 20
6.653967
 42
0.077286
  0
VERTEX
  8
0
 10
4.776236
 20
6.647113
 42
-0.038939
  0
VERTEX
  8
0
 10
4.782158
 20
6.642378
 42
-0.089697
  0
SEQEND
  8
0
  0
POLYLINE
  8
0
 66
1
 70
1
  0
VERTEX
  8
0
 10
5.312628
 20
5.246739
  0
VERTEX
  8
0
 10
5.455769
 20
5.240424
  0
VERTEX
  8
0
 10
5.449456
 20
5.133065
  0
VERTEX
  8
0
 10
5.304207
 20
5.141487
 42
-0.100402
  0
VERTEX
  8
0
 10
5.30304
 20
5.163823
 42
-0.028295
  0
VERTEX
  8
0
 10
5.307941
 20
5.188176
 42
0.029036
  0
VERTEX
  8
0
 10
5.313556
 20
5.216497
 42
0.08275
  0
SEQEND
  8
0
  0
POLYLINE
  8
0
 66
1
 70
1
  0
VERTEX
  8
0
 10
5.539971
 20
4.966768
  0
VERTEX
  8
0
 10
5.531551
 20
4.777315
  0
VERTEX
  8
0
 10
5.281051
 20
4.768894
 42
-0.053228
  0
VERTEX
  8
0
 10
5.281051
 20
5.065704
 42
0.04278
  0
VERTEX
  8
0
 10
5.322649
 20
5.065472
 42
0.011081
  0
VERTEX
  8
0
 10
5.369972
 20
5.07
 42
-0.021224
  0
VERTEX
  8
0
 10
5.437891
 20
5.075578
 42
-0.08629
  0
VERTEX
  8
0
 10
5.496778
 20
5.068728
 42
-0.208409
  0
VERTEX
  8
0
 10
5.534762
 20
5.036705
 42
-0.152573
  0
SEQEND
  8
0
  0
POLYLINE
  8
0
 66
1
 70
1
  0
VERTEX
  8
0
 10
4.61586
 20
5.520394
  0
VERTEX
  8
0
 10
4.61586
 20
5.208847
  0
VERTEX
  8
0
 10
4.599019
 20
5.194112
 42
0.04994
  0
VERTEX
  8
0
 10
4.591695
 20
5.264141
 42
0.013737
  0
VERTEX
  8
0
 10
4.574655
 20
5.338665
 42
-0.014296
  0
VERTEX
  8
0
 10
4.558753
 20
5.408251
 42
-0.061827
  0
VERTEX
  8
0
 10
4.553674
 20
5.466799
 42
-0.188489
  0
VERTEX
  8
0
 10
4.569386
 20
5.506713
 42
-0.204239
  0
SEQEND
  8
0
  0
POLYLINE
  8
0
 66
1
 70
1
  0
VERTEX
  8
0
 10
4.205378
 20
5.96666
 42
-0.320815
  0
VERTEX
  8
0
 10
4.301422
 20
5.954166
 42
-0.06816
  0
VERTEX
  8
0
 10
4.334227
 20
5.914121
 42
-0.018903
  0
VERTEX
  8
0
 10
4.362187
 20
5.865341
 42
0.014052
  0
VERTEX
  8
0
 10
4.384987
 20
5.824939
 42
0.052841
  0
VERTEX
  8
0
 10
4.409567
 20
5.791943
 42
-0.027666
  0
VERTEX
  8
0
 10
4.360202
 20
5.791736
 42
0.041216
  0
VERTEX
  8
0
 10
4.310414
 20
5.790753
 42
0.086883
  0
VERTEX
  8
0
 10
4.255575
 20
5.773592
  0
VERTEX
  8
0
 10
4.242103
 20
5.679286
 42
0.115009
  0
VERTEX
  8
0
 10
4.265252
 20
5.664753
 42
0.061621
  0
VERTEX
  8
0
 10
4.295886
 20
5.658132
 42
0.036102
  0
VERTEX
  8
0
 10
4.368138
 20
5.658012
 42
-0.018953
  0
VERTEX
  8
0
 10
4.418154
 20
5.659048
 42
-0.08693
  0
VERTEX
  8
0
 10
4.457658
 20
5.652342
 42
-0.028329
  0
VERTEX
  8
0
 10
4.493863
 20
5.637504
 42
0.033042
  0
VERTEX
  8
0
 10
4.540079
 20
5.619331
 42
-0.007417
  0
VERTEX
  8
0
 10
4.428083
 20
5.626014
 42
0.026033
  0
VERTEX
  8
0
 10
4.190643
 20
5.634064
  0
SEQEND
  8
0
  0
POLYLINE
  8
0
 66
1
 70
1
  0
VERTEX
  8
0
 10
4.123282
 20
6.036128
  0
VERTEX
  8
0
 10
4.138017
 20
6.54344
  0
VERTEX
  8
0
 10
4.167488
 20
6.566597
  0
VERTEX
  8
0
 10
4.304315
 20
6.549757
 42
-0.026509
  0
VERTEX
  8
0
 10
4.295894
 20
6.012971
 42
-0.093119
  0
VERTEX
  8
0
 10
4.20643
 20
6.007183
 42
-0.113603
  0
SEQEND
  8
0
  0
POLYLINE
  8
0
 66
1
 70
1
  0
VERTEX
  8
0
 10
4.333785
 20
6.572913
 42
0.031525
  0
VERTEX
  8
0
 10
4.477464
 20
6.566958
 42
-0.016877
  0
VERTEX
  8
0
 10
4.582481
 20
6.564643
 42
-0.053383
  0
VERTEX
  8
0
 10
4.683318
 20
6.548246
 42
-0.20971
  0
VERTEX
  8
0
 10
4.684963
 20
6.548347
 42
-0.105703
  0
VERTEX
  8
0
 10
4.686628
 20
6.547239
 42
-0.044696
  0
VERTEX
  8
0
 10
4.690142
 20
6.542797
 42
0.03005
  0
VERTEX
  8
0
 10
4.693765
 20
6.538086
 42
0.125624
  0
VERTEX
  8
0
 10
4.697957
 20
6.535021
 42
-0.06139
  0
VERTEX
  8
0
 10
4.648706
 20
6.525898
 42
-0.016739
  0
VERTEX
  8
0
 10
4.592983
 20
6.52399
 42
0.062239
  0
VERTEX
  8
0
 10
4.48624
 20
6.514066
 42
0.229175
  0
VERTEX
  8
0
 10
4.409567
 20
6.452925
  0
VERTEX
  8
0
 10
4.350625
 20
6.240315
 42
-0.052783
  0
VERTEX
  8
0
 10
4.347405
 20
6.299229
 42
-0.014448
  0
VERTEX
  8
0
 10
4.35227
 20
6.364975
 42
0.03289
  0
VERTEX
  8
0
 10
4.357519
 20
6.472351
 42
0.110964
  0
SEQEND
  8
0
  0
POLYLINE
  8
0
 66
1
 70
1
  0
VERTEX
  8
0
 10
4.039079
 20
7.254943
  0
VERTEX
  8
0
 10
4.123282
 20
7.2781
  0
VERTEX
  8
0
 10
4.039079
 20
7.231789
  0
SEQEND
  8
0
  0
POLYLINE
  8
0
 66
1
 70
1
  0
VERTEX
  8
0
 10
4.039079
 20
7.179164
 42
-0.242966
  0
VERTEX
  8
0
 10
4.864254
 20
7.31599
 42
-0.215225
  0
VERTEX
  8
0
 10
5.441035
 20
6.785521
 42
0.257292
  0
VERTEX
  8
0
 10
5.410676
 20
6.795125
 42
0.095307
  0
VERTEX
  8
0
 10
5.370253
 20
6.780258
 42
0.094962
  0
VERTEX
  8
0
 10
5.297892
 20
6.71816
 42
0.043594
  0
VERTEX
  8
0
 10
5.042751
 20
6.710349
 42
-0.009815
  0
VERTEX
  8
0
 10
4.9253
 20
6.701319
 42
0.219235
  0
VERTEX
  8
0
 10
4.888463
 20
6.749735
 42
0.227483
  0
VERTEX
  8
0
 10
4.826364
 20
6.747631
 42
-0.122962
  0
VERTEX
  8
0
 10
4.724016
 20
6.696006
 42
-0.04242
  0
VERTEX
  8
0
 10
4.611062
 20
6.681733
 42
0.050254
  0
VERTEX
  8
0
 10
4.479033
 20
6.663429
 42
0.116606
  0
VERTEX
  8
0
 10
4.440298
 20
6.653356
 42
0.035434
  0
VERTEX
  8
0
 10
4.404858
 20
6.631372
 42
-0.089601
  0
VERTEX
  8
0
 10
4.351162
 20
6.602865
 42
-0.119582
  0
VERTEX
  8
0
 10
4.321943
 20
6.602696
 42
-0.108145
  0
VERTEX
  8
0
 10
4.289579
 20
6.619222
 42
-0.093657
  0
VERTEX
  8
0
 10
4.247199
 20
6.602248
 42
-0.026852
  0
VERTEX
  8
0
 10
4.19881
 20
6.595042
 42
0.081489
  0
VERTEX
  8
0
 10
4.124888
 20
6.57895
 42
0.275557
  0
VERTEX
  8
0
 10
4.08539
 20
6.520286
 42
-0.100995
  0
VERTEX
  8
0
 10
4.075887
 20
6.566776
 42
-0.026375
  0
VERTEX
  8
0
 10
4.078009
 20
6.620605
 42
0.07233
  0
VERTEX
  8
0
 10
4.076365
 20
6.708069
 42
0.254942
  0
VERTEX
  8
0
 10
4.024344
 20
6.770785
  0
SEQEND
  8
0
  0
POLYLINE
  8
0
 66
1
 70
1
  0
VERTEX
  8
0
 10
3.712799
 20
5.185692
  0
VERTEX
  8
0
 10
3.258111
 20
5.179378
  0
VERTEX
  8
0
 10
3.258111
 20
5.223583
  0
VERTEX
  8
0
 10
3.721219
 20
5.232003
 42
0.224751
  0
VERTEX
  8
0
 10
3.717855
 20
5.224263
 42
0.048268
  0
VERTEX
  8
0
 10
3.718904
 20
5.213493
 42
-0.065853
  0
VERTEX
  8
0
 10
3.719953
 20
5.198563
 42
-0.217878
  0
SEQEND
  8
0
  0
POLYLINE
  8
0
 66
1
 70
1
  0
VERTEX
  8
0
 10
3.858047
 20
7.004444
  0
VERTEX
  8
0
 10
3.858047
 20
6.79394
 42
0.159675
  0
VERTEX
  8
0
 10
3.796474
 20
6.76868
 42
0.070115
  0
VERTEX
  8
0
 10
3.75069
 20
6.71816
  0
VERTEX
  8
0
 10
3.735954
 20
6.004553
 42
-0.160124
  0
VERTEX
  8
0
 10
3.654121
 20
6.521864
 42
-0.134242
  0
SEQEND
  8
0
  0
POLYLINE
  8
0
 66
1
 70
1
  0
VERTEX
  8
0
 10
4.123282
 20
4.806786
 42
-0.079188
  0
VERTEX
  8
0
 10
4.063408
 20
4.834381
 42
-0.024817
  0
VERTEX
  8
0
 10
4.008881
 20
4.874805
 42
0.028525
  0
VERTEX
  8
0
 10
3.951046
 20
4.917262
 42
0.092776
  0
VERTEX
  8
0
 10
3.887517
 20
4.943612
 42
-0.111075
  0
VERTEX
  8
0
 10
3.831207
 20
5.009132
 42
-0.06892
  0
VERTEX
  8
0
 10
3.803315
 20
5.088861
 42
-0.101513
  0
VERTEX
  8
0
 10
3.860549
 20
5.103027
 42
-0.13663
  0
VERTEX
  8
0
 10
3.902248
 20
5.092259
 42
-0.087164
  0
VERTEX
  8
0
 10
3.933832
 20
5.064514
 42
-0.025135
  0
VERTEX
  8
0
 10
3.960721
 20
5.027749
 42
0.051151
  0
VERTEX
  8
0
 10
4.00245
 20
4.974664
 42
0.157669
  0
VERTEX
  8
0
 10
4.062235
 20
4.943612
 42
-0.207903
  0
VERTEX
  8
0
 10
4.092576
 20
4.912721
 42
-0.073945
  0
VERTEX
  8
0
 10
4.099593
 20
4.871444
 42
0.05086
  0
VERTEX
  8
0
 10
4.104531
 20
4.836198
 42
0.159336
  0
SEQEND
  8
0
  0
POLYLINE
  8
0
 66
1
 70
1
  0
VERTEX
  8
0
 10
3.940143
 20
8.059067
 42
0.024954
  0
VERTEX
  8
0
 10
3.964269
 20
8.058718
 42
-0.031469
  0
VERTEX
  8
0
 10
3.991553
 20
8.05809
 42
-0.108782
  0
VERTEX
  8
0
 10
4.015925
 20
8.050647
  0
VERTEX
  8
0
 10
4.015925
 20
8.027493
  0
VERTEX
  8
0
 10
3.933828
 20
8.012757
  0
SEQEND
  8
0
  0
POLYLINE
  8
0
 66
1
 70
1
  0
VERTEX
  8
0
 10
3.954878
 20
6.899193
 42
-0.010292
  0
VERTEX
  8
0
 10
3.948314
 20
7.58622
 42
0.002382
  0
VERTEX
  8
0
 10
3.948564
 20
7.960132
 42
-0.177153
  0
VERTEX
  8
0
 10
3.947844
 20
7.970485
 42
-0.188756
  0
VERTEX
  8
0
 10
3.953479
 20
7.976501
 42
-0.073558
  0
VERTEX
  8
0
 10
3.962993
 20
7.979584
 42
-0.019095
  0
VERTEX
  8
0
 10
3.973906
 20
7.981136
 42
0.009624
  0
VERTEX
  8
0
 10
3.980804
 20
7.982026
 42
0.04021
  0
VERTEX
  8
0
 10
3.986454
 20
7.983287
 42
-0.111767
  0
VERTEX
  8
0
 10
4.000366
 20
7.983652
 42
-0.215488
  0
VERTEX
  8
0
 10
4.007129
 20
7.97856
 42
-0.114378
  0
VERTEX
  8
0
 10
4.009117
 20
7.969695
 42
-0.026655
  0
VERTEX
  8
0
 10
4.008701
 20
7.958741
 42
0.05546
  0
VERTEX
  8
0
 10
4.008688
 20
7.942535
 42
0.232222
  0
VERTEX
  8
0
 10
4.015925
 20
7.930661
  0
VERTEX
  8
0
 10
3.986454
 20
6.79394
 42
-0.093825
  0
VERTEX
  8
0
 10
3.954714
 20
6.796135
 42
-0.23579
  0
VERTEX
  8
0
 10
3.941605
 20
6.807323
 42
-0.137592
  0
VERTEX
  8
0
 10
3.94113
 20
6.825179
 42
-0.028864
  0
VERTEX
  8
0
 10
3.947293
 20
6.847382
 42
0.029089
  0
VERTEX
  8
0
 10
3.95449
 20
6.873571
 42
0.103053
  0
SEQEND
  8
0
  0
POLYLINE
  8
0
 66
1
 70
1
  0
VERTEX
  8
0
 10
3.887517
 20
6.695006
 42
-0.16563
  0
VERTEX
  8
0
 10
3.900706
 20
6.702293
 42
-0.08426
  0
VERTEX
  8
0
 10
3.912579
 20
6.701543
 42
0.035883
  0
VERTEX
  8
0
 10
3.919578
 20
6.700624
 42
0.1091
  0
VERTEX
  8
0
 10
3.926415
 20
6.701756
 42
0.117585
  0
VERTEX
  8
0
 10
3.933225
 20
6.706936
 42
0.068134
  0
VERTEX
  8
0
 10
3.940143
 20
6.71816
 42
0.003393
  0
VERTEX
  8
0
 10
3.934581
 20
6.72744
 42
-0.026999
  0
VERTEX
  8
0
 10
3.92726
 20
6.740362
 42
-0.219625
  0
VERTEX
  8
0
 10
3.9263
 20
6.747843
 42
-0.181599
  0
VERTEX
  8
0
 10
3.933035
 20
6.752737
 42
-0.021641
  0
VERTEX
  8
0
 10
3.948797
 20
6.757901
 42
0.003923
  0
VERTEX
  8
0
 10
3.963299
 20
6.762367
 42
0.04038
  0
VERTEX
  8
0
 10
3.977244
 20
6.75076
 42
0.012706
  0
VERTEX
  8
0
 10
3.992769
 20
6.74038
 42
-0.052455
  0
VERTEX
  8
0
 10
4.022239
 20
6.718393
 42
-0.164326
  0
VERTEX
  8
0
 10
4.039079
 20
6.686583
 42
0.000217
  0
VERTEX
  8
0
 10
4.027196
 20
6.268929
 42
-0.001655
  0
VERTEX
  8
0
 10
3.992769
 20
5.133065
 42
-0.072529
  0
VERTEX
  8
0
 10
3.949526
 20
5.125513
 42
-0.021441
  0
VERTEX
  8
0
 10
3.90317
 20
5.12597
 42
0.009463
  0
VERTEX
  8
0
 10
3.872782
 20
5.126751
  0
VERTEX
  8
0
 10
3.872782
 20
6.012971
  0
VERTEX
  8
0
 10
3.849626
 20
6.027707
 42
0.12753
  0
VERTEX
  8
0
 10
3.876943
 20
6.048337
 42
0.133887
  0
VERTEX
  8
0
 10
3.887052
 20
6.074579
 42
0.087168
  0
VERTEX
  8
0
 10
3.878599
 20
6.136374
 42
-0.058988
  0
VERTEX
  8
0
 10
3.86963
 20
6.188577
 42
-0.225653
  0
VERTEX
  8
0
 10
3.887517
 20
6.231897
 42
-0.075018
  0
SEQEND
  8
0
  0
POLYLINE
  8
0
 66
1
 70
1
  0
VERTEX
  8
0
 10
3.342312
 20
7.187582
 42
0.222342
  0
VERTEX
  8
0
 10
3.341482
 20
7.162273
 42
0.084034
  0
VERTEX
  8
0
 10
3.355704
 20
7.143401
 42
-0.034353
  0
VERTEX
  8
0
 10
3.365831
 20
7.131604
 42
-0.114381
  0
VERTEX
  8
0
 10
3.371783
 20
7.118117
  0
VERTEX
  8
0
 10
3.159175
 20
6.974974
  0
VERTEX
  8
0
 10
3.083393
 20
7.141272
 42
-0.224181
  0
VERTEX
  8
0
 10
3.155193
 20
7.18751
 42
-0.061122
  0
VERTEX
  8
0
 10
3.249567
 20
7.187658
 42
0.013917
  0
VERTEX
  8
0
 10
3.297328
 20
7.184872
 42
0.047036
  0
SEQEND
  8
0
  0
POLYLINE
  8
0
 66
1
 70
1
  0
VERTEX
  8
0
 10
3.045503
 20
7.126536
 42
-0.053781
  0
VERTEX
  8
0
 10
3.056602
 20
7.105748
 42
-0.019159
  0
VERTEX
  8
0
 10
3.06421
 20
7.084371
 42
0.021049
  0
VERTEX
  8
0
 10
3.071996
 20
7.062648
 42
0.06141
  0
VERTEX
  8
0
 10
3.083393
 20
7.042335
  0
VERTEX
  8
0
 10
2.637125
 20
6.922347
  0
VERTEX
  8
0
 10
2.607654
 20
6.98971
 42
-0.006205
  0
VERTEX
  8
0
 10
2.862223
 20
7.069743
 42
0.003019
  0
SEQEND
  8
0
  0
POLYLINE
  8
0
 66
1
 70
1
  0
VERTEX
  8
0
 10
2.462407
 20
6.937083
 42
0.118951
  0
VERTEX
  8
0
 10
2.495753
 20
6.933919
 42
0.035776
  0
VERTEX
  8
0
 10
2.529236
 20
6.940979
 42
-0.019051
  0
VERTEX
  8
0
 10
2.550247
 20
6.945931
 42
-0.077859
  0
VERTEX
  8
0
 10
2.568325
 20
6.94686
 42
-0.170324
  0
VERTEX
  8
0
 10
2.582253
 20
6.940191
 42
-0.140704
  0
VERTEX
  8
0
 10
2.590814
 20
6.922347
 42
-0.088603
  0
VERTEX
  8
0
 10
2.551894
 20
6.879654
 42
-0.02629
  0
VERTEX
  8
0
 10
2.501194
 20
6.844508
 42
0.036548
  0
VERTEX
  8
0
 10
2.439251
 20
6.800257
 42
0.033055
  0
VERTEX
  8
0
 10
2.421383
 20
6.83774
 42
-0.021902
  0
VERTEX
  8
0
 10
2.401758
 20
6.877863
 42
-0.102945
  0
VERTEX
  8
0
 10
2.393052
 20
6.913838
 42
-0.323216
  0
VERTEX
  8
0
 10
2.408767
 20
6.9366
 42
-0.132414
  0
SEQEND
  8
0
  0
POLYLINE
  8
0
 66
1
 70
1
  0
VERTEX
  8
0
 10
2.424517
 20
6.747631
 42
-0.090453
  0
VERTEX
  8
0
 10
2.661242
 20
6.883575
 42
-0.030191
  0
VERTEX
  8
0
 10
2.923478
 20
6.958293
 42
0.013451
  0
VERTEX
  8
0
 10
3.100233
 20
7.004444
 42
-0.081182
  0
VERTEX
  8
0
 10
3.110796
 20
6.985783
 42
-0.025294
  0
VERTEX
  8
0
 10
3.117461
 20
6.964528
 42
0.040666
  0
VERTEX
  8
0
 10
3.126679
 20
6.937123
 42
0.120848
  0
VERTEX
  8
0
 10
3.144439
 20
6.913926
 42
0.099077
  0
VERTEX
  8
0
 10
3.190639
 20
6.938344
 42
0.022768
  0
VERTEX
  8
0
 10
3.238452
 20
6.979185
 42
-0.012665
  0
VERTEX
  8
0
 10
3.274865
 20
7.011103
 42
-0.046822
  0
VERTEX
  8
0
 10
3.310737
 20
7.036021
 42
-0.064384
  0
VERTEX
  8
0
 10
3.465387
 20
7.105042
 42
-0.021158
  0
VERTEX
  8
0
 10
3.630911
 20
7.147023
 42
0.040023
  0
VERTEX
  8
0
 10
3.858047
 20
7.210739
  0
VERTEX
  8
0
 10
3.864362
 20
7.050756
  0
VERTEX
  8
0
 10
3.858047
 20
7.059175
 42
0.154821
  0
VERTEX
  8
0
 10
3.599126
 20
6.459239
 42
-0.037717
  0
VERTEX
  8
0
 10
3.444292
 20
6.444512
 42
0.043662
  0
VERTEX
  8
0
 10
3.290772
 20
6.428921
 42
0.116543
  0
VERTEX
  8
0
 10
3.144439
 20
6.360303
 42
-0.053322
  0
VERTEX
  8
0
 10
2.987009
 20
6.328027
 42
-0.018796
  0
VERTEX
  8
0
 10
2.831352
 20
6.319362
 42
0.035781
  0
VERTEX
  8
0
 10
2.619956
 20
6.302806
 42
0.09576
  0
VERTEX
  8
0
 10
2.409781
 20
6.225581
 42
0.054641
  0
VERTEX
  8
0
 10
2.044396
 20
6.163316
 42
-0.053804
  0
VERTEX
  8
0
 10
1.698278
 20
6.103489
 42
-0.12909
  0
VERTEX
  8
0
 10
1.701435
 20
6.292678
 42
-0.061939
  0
VERTEX
  8
0
 10
1.77406
 20
6.473975
 42
-0.12629
  0
VERTEX
  8
0
 10
2.001404
 20
6.709739
 42
0.024108
  0
VERTEX
  8
0
 10
2.194005
 20
6.759205
 42
-0.024113
  0
VERTEX
  8
0
 10
2.386625
 20
6.808675
 42
-0.059449
  0
VERTEX
  8
0
 10
2.395734
 20
6.795344
 42
-0.020918
  0
VERTEX
  8
0
 10
2.402362
 20
6.781116
 42
0.033472
  0
VERTEX
  8
0
 10
2.410993
 20
6.763367
 42
0.090666
  0
SEQEND
  8
0
  0
POLYLINE
  8
0
 66
1
 70
1
  0
VERTEX
  8
0
 10
1.529875
 20
6.680269
 42
-0.016492
  0
VERTEX
  8
0
 10
1.929695
 20
6.800469
 42
0.017096
  0
VERTEX
  8
0
 10
2.334
 20
6.922347
  0
VERTEX
  8
0
 10
2.37189
 20
6.846568
  0
VERTEX
  8
0
 10
2.077185
 20
6.770785
 42
0.171563
  0
VERTEX
  8
0
 10
2.0748
 20
6.786356
 42
0.161532
  0
VERTEX
  8
0
 10
2.064525
 20
6.794775
 42
0.068968
  0
VERTEX
  8
0
 10
2.049655
 20
6.798393
 42
0.019142
  0
VERTEX
  8
0
 10
2.033484
 20
6.799565
 42
-0.012742
  0
VERTEX
  8
0
 10
2.022454
 20
6.800257
 42
0.079894
  0
VERTEX
  8
0
 10
2.000274
 20
6.797491
 42
0.024953
  0
VERTEX
  8
0
 10
1.978856
 20
6.790151
 42
-0.07427
  0
VERTEX
  8
0
 10
1.948994
 20
6.781793
 42
-0.288916
  0
VERTEX
  8
0
 10
1.925622
 20
6.79394
 42
-0.267403
  0
VERTEX
  8
0
 10
1.911113
 20
6.779143
 42
-0.075739
  0
VERTEX
  8
0
 10
1.888576
 20
6.777376
 42
0.067788
  0
VERTEX
  8
0
 10
1.866094
 20
6.775798
 42
0.23567
  0
VERTEX
  8
0
 10
1.84984
 20
6.762367
 42
-0.131071
  0
VERTEX
  8
0
 10
1.757383
 20
6.686307
 42
-0.05489
  0
VERTEX
  8
0
 10
1.653567
 20
6.655974
 42
0.048164
  0
VERTEX
  8
0
 10
1.546715
 20
6.625538
 42
0.033655
  0
VERTEX
  8
0
 10
1.539786
 20
6.639874
 42
-0.047964
  0
VERTEX
  8
0
 10
1.531337
 20
6.658299
 42
-0.12493
  0
SEQEND
  8
0
  0
POLYLINE
  8
0
 66
1
 70
1
  0
VERTEX
  8
0
 10
1.491985
 20
6.642378
 42
0.01672
  0
VERTEX
  8
0
 10
1.498531
 20
6.629229
 42
-0.045367
  0
VERTEX
  8
0
 10
1.507498
 20
6.60944
 42
-0.129412
  0
VERTEX
  8
0
 10
1.508825
 20
6.587647
 42
0.034482
  0
VERTEX
  8
0
 10
1.481134
 20
6.570414
 42
0.007963
  0
VERTEX
  8
0
 10
1.450563
 20
6.548023
 42
-0.003365
  0
VERTEX
  8
0
 10
1.433043
 20
6.535021
  0
VERTEX
  8
0
 10
1.386733
 20
6.625538
 42
-0.044809
  0
VERTEX
  8
0
 10
1.405789
 20
6.62693
 42
-0.013934
  0
VERTEX
  8
0
 10
1.425504
 20
6.626089
 42
0.054062
  0
VERTEX
  8
0
 10
1.461963
 20
6.626403
 42
0.184654
  0
SEQEND
  8
0
  0
POLYLINE
  8
0
 66
1
 70
1
  0
VERTEX
  8
0
 10
1.340422
 20
6.625538
  0
VERTEX
  8
0
 10
1.363578
 20
6.581331
  0
VERTEX
  8
0
 10
1.174124
 20
6.528706
  0
VERTEX
  8
0
 10
1.159389
 20
6.566597
 42
-0.033943
  0
SEQEND
  8
0
  0
POLYLINE
  8
0
 66
1
 70
1
  0
VERTEX
  8
0
 10
1.098343
 20
6.535021
  0
VERTEX
  8
0
 10
1.121499
 20
6.497129
  0
VERTEX
  8
0
 10
1.060451
 20
6.452925
 42
0.099988
  0
VERTEX
  8
0
 10
1.055399
 20
6.469421
 42
0.032538
  0
VERTEX
  8
0
 10
1.046035
 20
6.484219
 42
-0.039433
  0
VERTEX
  8
0
 10
1.035702
 20
6.500895
 42
-0.115108
  0
VERTEX
  8
0
 10
1.030982
 20
6.520286
  0
SEQEND
  8
0
  0
POLYLINE
  8
0
 66
1
 70
1
  0
VERTEX
  8
0
 10
0.678696
 20
5.766856
  0
VERTEX
  8
0
 10
0.675231
 20
5.808783
 42
-0.025062
  0
VERTEX
  8
0
 10
1.473557
 20
5.941994
 42
-0.2158
  0
VERTEX
  8
0
 10
1.434211
 20
5.90256
 42
-0.059884
  0
VERTEX
  8
0
 10
1.348145
 20
5.874773
 42
-0.02372
  0
VERTEX
  8
0
 10
1.087722
 20
5.837422
 42
0.01018
  0
VERTEX
  8
0
 10
0.871202
 20
5.809677
 42
0.039114
  0
SEQEND
  8
0
  0
POLYLINE
  8
0
 66
1
 70
1
  0
VERTEX
  8
0
 10
0.538403
 20
4.299472
  0
VERTEX
  8
0
 10
0.529982
 20
4.293157
 42
-0.108932
  0
VERTEX
  8
0
 10
0.485776
 20
4.625753
 42
-0.027848
  0
VERTEX
  8
0
 10
0.504466
 20
4.521512
 42
0.015932
  0
VERTEX
  8
0
 10
0.51584
 20
4.451364
 42
0.068796
  0
VERTEX
  8
0
 10
0.533868
 20
4.396056
 42
0.152267
  0
VERTEX
  8
0
 10
0.537675
 20
4.413262
 42
0.091898
  0
VERTEX
  8
0
 10
0.53314
 20
4.42549
 42
-0.070521
  0
VERTEX
  8
0
 10
0.528757
 20
4.436355
 42
-0.136709
  0
VERTEX
  8
0
 10
0.529982
 20
4.451033
 42
0.092499
  0
VERTEX
  8
0
 10
0.531957
 20
4.479051
 42
0.035523
  0
VERTEX
  8
0
 10
0.526828
 20
4.5047
 42
-0.035489
  0
VERTEX
  8
0
 10
0.521695
 20
4.530361
 42
-0.092535
  0
VERTEX
  8
0
 10
0.523668
 20
4.558392
  0
VERTEX
  8
0
 10
0.538403
 20
4.541551
 42
0.130686
  0
VERTEX
  8
0
 10
0.529982
 20
4.914142
 42
0.134004
  0
VERTEX
  8
0
 10
0.51205
 20
4.880647
 42
0.038941
  0
VERTEX
  8
0
 10
0.505921
 20
4.840899
 42
-0.036532
  0
VERTEX
  8
0
 10
0.500557
 20
4.805063
 42
-0.142298
  0
VERTEX
  8
0
 10
0.485776
 20
4.777315
  0
VERTEX
  8
0
 10
0.485776
 20
4.777315
 42
-0.017115
  0
VERTEX
  8
0
 10
0.489812
 20
4.86495
 42
-0.028587
  0
VERTEX
  8
0
 10
0.498605
 20
4.931556
 42
-0.120029
  0
VERTEX
  8
0
 10
0.515247
 20
4.975189
 42
-0.238068
  0
VERTEX
  8
0
 10
0.529179
 20
4.973183
 42
-0.06368
  0
VERTEX
  8
0
 10
0.540544
 20
4.962752
 42
0.009739
  0
VERTEX
  8
0
 10
0.544718
 20
4.958349
 42
-0.073925
  0
VERTEX
  8
0
 10
0.576294
 20
4.625753
 42
-0.033399
  0
SEQEND
  8
0
  0
POLYLINE
  8
0
 66
1
 70
1
  0
VERTEX
  8
0
 10
0.727856
 20
4.406829
 42
0.013048
  0
VERTEX
  8
0
 10
0.719667
 20
4.370333
 42
-0.03001
  0
VERTEX
  8
0
 10
0.706694
 20
4.317956
 42
-0.087761
  0
VERTEX
  8
0
 10
0.681546
 20
4.27
 42
-0.05186
  0
VERTEX
  8
0
 10
0.663669
 20
4.339566
 42
-0.016698
  0
VERTEX
  8
0
 10
0.655279
 20
4.412008
 42
0.003401
  0
VERTEX
  8
0
 10
0.652075
 20
4.444719
 42
-0.194055
  0
VERTEX
  8
0
 10
0.658385
 20
4.446365
 42
-0.219636
  0
VERTEX
  8
0
 10
0.662355
 20
4.442854
 42
-0.065932
  0
VERTEX
  8
0
 10
0.664829
 20
4.435525
 42
-0.013989
  0
VERTEX
  8
0
 10
0.66665
 20
4.425713
 42
0.03979
  0
VERTEX
  8
0
 10
0.671131
 20
4.405613
 42
0.159083
  0
VERTEX
  8
0
 10
0.681546
 20
4.389987
 42
0.120219
  0
VERTEX
  8
0
 10
0.698919
 20
4.398611
 42
0.224843
  0
VERTEX
  8
0
 10
0.703498
 20
4.40982
 42
0.105967
  0
VERTEX
  8
0
 10
0.699298
 20
4.423144
 42
0.023566
  0
VERTEX
  8
0
 10
0.690333
 20
4.438114
 42
-0.049053
  0
VERTEX
  8
0
 10
0.676586
 20
4.462987
 42
-0.187143
  0
VERTEX
  8
0
 10
0.675231
 20
4.488925
  0
VERTEX
  8
0
 10
0.675231
 20
4.602596
 42
-0.02723
  0
VERTEX
  8
0
 10
0.681025
 20
4.584405
 42
0.044195
  0
VERTEX
  8
0
 10
0.68882
 20
4.561708
 42
0.115605
  0
VERTEX
  8
0
 10
0.7047
 20
4.541551
  0
VERTEX
  8
0
 10
0.727856
 20
4.564706
 42
-0.042087
  0
VERTEX
  8
0
 10
0.716606
 20
4.692265
 42
0.023819
  0
VERTEX
  8
0
 10
0.710198
 20
4.791246
 42
0.081204
  0
VERTEX
  8
0
 10
0.685432
 20
4.881057
 42
-0.064813
  0
VERTEX
  8
0
 10
0.677541
 20
4.871649
 42
-0.099334
  0
VERTEX
  8
0
 10
0.670396
 20
4.867324
 42
-0.129791
  0
VERTEX
  8
0
 10
0.657403
 20
4.867135
 42
0.024024
  0
VERTEX
  8
0
 10
0.652075
 20
4.867832
 42
0.043132
  0
VERTEX
  8
0
 10
0.656782
 20
4.887187
 42
0.012578
  0
VERTEX
  8
0
 10
0.65956
 20
4.908296
 42
-0.053925
  0
VERTEX
  8
0
 10
0.667044
 20
4.948759
 42
-0.223565
  0
VERTEX
  8
0
 10
0.689965
 20
4.975189
 42
-0.158527
  0
VERTEX
  8
0
 10
0.719727
 20
4.901731
 42
-0.032371
  0
VERTEX
  8
0
 10
0.737997
 20
4.752015
 42
-0.052319
  0
SEQEND
  8
0
  0
POLYLINE
  8
0
 66
1
 70
1
  0
VERTEX
  8
0
 10
0.751011
 20
5.050969
 42
0.243952
  0
VERTEX
  8
0
 10
0.67138
 20
5.102294
 42
0.061611
  0
VERTEX
  8
0
 10
0.56465
 20
5.099738
 42
-0.019067
  0
VERTEX
  8
0
 10
0.506828
 20
5.095176
 42
0.16547
  0
VERTEX
  8
0
 10
0.477135
 20
5.072558
 42
0.054797
  0
VERTEX
  8
0
 10
0.460479
 20
5.039523
 42
-0.038432
  0
VERTEX
  8
0
 10
0.447886
 20
5.013079
 42
-0.195509
  0
VERTEX
  8
0
 10
0.45499
 20
5.074389
 42
-0.095543
  0
VERTEX
  8
0
 10
0.492092
 20
5.118331
  0
VERTEX
  8
0
 10
0.91731
 20
5.118331
 42
-0.016631
  0
VERTEX
  8
0
 10
0.917107
 20
5.067384
 42
0.014674
  0
VERTEX
  8
0
 10
0.916819
 20
5.008407
 42
0.064031
  0
VERTEX
  8
0
 10
0.923625
 20
4.958349
 42
0.04999
  0
VERTEX
  8
0
 10
0.859589
 20
4.959671
 42
-0.027581
  0
VERTEX
  8
0
 10
0.81702
 20
4.959224
 42
-0.109397
  0
VERTEX
  8
0
 10
0.781764
 20
4.968138
 42
-0.17833
  0
VERTEX
  8
0
 10
0.758276
 20
4.995643
 42
-0.102689
  0
SEQEND
  8
0
  0
POLYLINE
  8
0
 66
1
 70
1
  0
VERTEX
  8
0
 10
0.978356
 20
4.844676
 42
0.068169
  0
VERTEX
  8
0
 10
0.979815
 20
4.914674
 42
0.022577
  0
VERTEX
  8
0
 10
0.968451
 20
4.98433
 42
-0.015196
  0
VERTEX
  8
0
 10
0.958286
 20
5.043104
 42
-0.044561
  0
VERTEX
  8
0
 10
0.9552
 20
5.103594
 42
0.022626
  0
VERTEX
  8
0
 10
0.96603
 20
5.107559
 42
-0.057253
  0
VERTEX
  8
0
 10
0.994115
 20
5.116192
 42
-0.214289
  0
VERTEX
  8
0
 10
1.022561
 20
5.109911
  0
VERTEX
  8
0
 10
1.030982
 20
4.83836
 42
0.173097
  0
VERTEX
  8
0
 10
1.01542
 20
4.845149
 42
0.046197
  0
VERTEX
  8
0
 10
0.996577
 20
4.844903
 42
-0.011131
  0
VERTEX
  8
0
 10
0.987176
 20
4.844354
 42
-0.037763
  0
SEQEND
  8
0
  0
POLYLINE
  8
0
 66
1
 70
1
  0
VERTEX
  8
0
 10
1.386733
 20
4.844676
  0
VERTEX
  8
0
 10
1.075187
 20
4.83836
 42
0.000034
  0
VERTEX
  8
0
 10
1.074679
 20
4.849015
 42
-0.018214
  0
VERTEX
  8
0
 10
1.068872
 20
5.109911
  0
VERTEX
  8
0
 10
1.386733
 20
5.109911
  0
SEQEND
  8
0
  0
POLYLINE
  8
0
 66
1
 70
1
  0
VERTEX
  8
0
 10
1.651968
 20
4.558392
 42
0.041915
  0
VERTEX
  8
0
 10
1.627569
 20
4.563273
 42
0.013439
  0
VERTEX
  8
0
 10
1.60231
 20
4.565493
 42
-0.038166
  0
VERTEX
  8
0
 10
1.560737
 20
4.570508
 42
-0.119042
  0
VERTEX
  8
0
 10
1.52356
 20
4.587861
 42
0.016759
  0
VERTEX
  8
0
 10
1.530688
 20
5.04147
 42
-0.002079
  0
VERTEX
  8
0
 10
1.529875
 20
5.194112
  0
VERTEX
  8
0
 10
0.65839
 20
5.208847
 42
-0.174638
  0
VERTEX
  8
0
 10
0.631649
 20
5.22651
 42
-0.115435
  0
VERTEX
  8
0
 10
0.614973
 20
5.260158
 42
-0.183343
  0
VERTEX
  8
0
 10
0.618427
 20
5.29499
 42
-0.232838
  0
VERTEX
  8
0
 10
0.652075
 20
5.316204
  0
VERTEX
  8
0
 10
1.508825
 20
5.337256
  0
VERTEX
  8
0
 10
1.529875
 20
5.36041
  0
VERTEX
  8
0
 10
1.538296
 20
6.012971
 42
0.147479
  0
VERTEX
  8
0
 10
1.536848
 20
6.034379
 42
0.154183
  0
VERTEX
  8
0
 10
1.525326
 20
6.047501
 42
0.07304
  0
VERTEX
  8
0
 10
1.507392
 20
6.05504
 42
0.019992
  0
VERTEX
  8
0
 10
1.486706
 20
6.059697
 42
-0.035153
  0
VERTEX
  8
0
 10
1.462514
 20
6.065597
 42
0.010279
  0
VERTEX
  8
0
 10
1.171457
 20
6.015091
 42
-0.03155
  0
VERTEX
  8
0
 10
0.675231
 20
5.943506
 42
-0.298856
  0
VERTEX
  8
0
 10
1.022561
 20
6.429768
 42
0.121891
  0
VERTEX
  8
0
 10
1.024404
 20
6.408456
 42
0.163218
  0
VERTEX
  8
0
 10
1.037297
 20
6.391878
 42
0.040311
  0
VERTEX
  8
0
 10
1.057285
 20
6.40258
 42
0.012057
  0
VERTEX
  8
0
 10
1.077157
 20
6.415991
 42
-0.048972
  0
VERTEX
  8
0
 10
1.117108
 20
6.440273
 42
-0.178964
  0
VERTEX
  8
0
 10
1.159389
 20
6.444504
 42
-0.17926
  0
VERTEX
  8
0
 10
1.215237
 20
6.496974
 42
-0.053407
  0
VERTEX
  8
0
 10
1.292869
 20
6.519788
 42
0.013653
  0
VERTEX
  8
0
 10
1.334014
 20
6.529618
 42
0.044794
  0
VERTEX
  8
0
 10
1.371997
 20
6.54344
 42
-0.033276
  0
VERTEX
  8
0
 10
1.383465
 20
6.527469
 42
0.088756
  0
VERTEX
  8
0
 10
1.409356
 20
6.496573
 42
0.149872
  0
VERTEX
  8
0
 10
1.426575
 20
6.490412
 42
0.151367
  0
VERTEX
  8
0
 10
1.447779
 20
6.497129
 42
-0.138251
  0
VERTEX
  8
0
 10
1.77406
 20
6.642378
 42
0.208054
  0
VERTEX
  8
0
 10
1.755278
 20
6.620516
 42
0.07749
  0
VERTEX
  8
0
 10
1.752969
 20
6.593339
 42
-0.017163
  0
VERTEX
  8
0
 10
1.75287
 20
6.579735
 42
-0.054201
  0
VERTEX
  8
0
 10
1.750904
 20
6.566597
  0
VERTEX
  8
0
 10
1.902467
 20
6.724474
 42
-0.23036
  0
VERTEX
  8
0
 10
1.888419
 20
6.674579
 42
-0.063404
  0
VERTEX
  8
0
 10
1.843879
 20
6.637093
 42
0.041266
  0
VERTEX
  8
0
 10
1.801685
 20
6.603343
 42
0.133206
  0
VERTEX
  8
0
 10
1.77406
 20
6.558176
 42
0.082134
  0
VERTEX
  8
0
 10
1.643547
 20
6.269786
 42
-0.119169
  0
VERTEX
  8
0
 10
1.654763
 20
6.259417
 42
-0.153643
  0
VERTEX
  8
0
 10
1.657532
 20
6.248487
 42
-0.086375
  0
VERTEX
  8
0
 10
1.654689
 20
6.237224
 42
-0.024006
  0
VERTEX
  8
0
 10
1.649074
 20
6.225854
 42
0.055385
  0
VERTEX
  8
0
 10
1.641748
 20
6.209441
 42
0.220129
  0
VERTEX
  8
0
 10
1.643547
 20
6.194006
 42
-0.036473
  0
VERTEX
  8
0
 10
1.645264
 20
6.160786
 42
-0.009148
  0
VERTEX
  8
0
 10
1.643954
 20
6.121644
 42
0.032726
  0
VERTEX
  8
0
 10
1.643842
 20
6.036087
 42
0.124533
  0
VERTEX
  8
0
 10
1.666703
 20
5.960346
 42
-0.080751
  0
VERTEX
  8
0
 10
1.674957
 20
5.968431
 42
-0.104139
  0
VERTEX
  8
0
 10
1.682909
 20
5.971752
 42
-0.10243
  0
VERTEX
  8
0
 10
1.698517
 20
5.970411
 42
0.072438
  0
VERTEX
  8
0
 10
1.712507
 20
5.968685
 42
0.162394
  0
VERTEX
  8
0
 10
1.727749
 20
5.975081
 42
-0.002005
  0
VERTEX
  8
0
 10
1.925247
 20
6.009336
 42
0.035704
  0
VERTEX
  8
0
 10
2.765532
 20
6.194006
 42
0.087609
  0
VERTEX
  8
0
 10
2.990426
 20
6.197596
 42
0.031211
  0
VERTEX
  8
0
 10
3.199924
 20
6.253212
 42
-0.025378
  0
VERTEX
  8
0
 10
3.384425
 20
6.303788
 42
-0.075165
  0
VERTEX
  8
0
 10
3.575972
 20
6.316099
  0
VERTEX
  8
0
 10
3.607547
 20
6.330832
 42
-0.060755
  0
VERTEX
  8
0
 10
3.607867
 20
6.325238
 42
-0.017953
  0
VERTEX
  8
0
 10
3.607302
 20
6.319351
 42
0.080345
  0
VERTEX
  8
0
 10
3.607089
 20
6.308494
 42
0.287989
  0
VERTEX
  8
0
 10
3.613862
 20
6.301362
 42
-0.063326
  0
VERTEX
  8
0
 10
3.548707
 20
6.286113
 42
-0.017247
  0
VERTEX
  8
0
 10
3.474536
 20
6.280431
 42
0.013515
  0
VERTEX
  8
0
 10
3.406232
 20
6.275515
 42
0.045379
  0
VERTEX
  8
0
 10
3.342312
 20
6.263471
 42
-0.035393
  0
VERTEX
  8
0
 10
3.057869
 20
6.179269
 42
-0.08145
  0
VERTEX
  8
0
 10
2.759217
 20
6.164533
 42
-0.045129
  0
VERTEX
  8
0
 10
2.675718
 20
6.13483
 42
-0.014608
  0
VERTEX
  8
0
 10
2.588009
 20
6.11495
 42
0.014609
  0
VERTEX
  8
0
 10
2.500297
 20
6.095068
 42
-0.032683
  0
VERTEX
  8
0
 10
2.070226
 20
6.010577
 42
0.02858
  0
VERTEX
  8
0
 10
1.643547
 20
5.928769
 42
-0.062801
  0
VERTEX
  8
0
 10
1.646629
 20
5.89489
 42
-0.018145
  0
VERTEX
  8
0
 10
1.644239
 20
5.85853
 42
0.07129
  0
VERTEX
  8
0
 10
1.644252
 20
5.793049
 42
0.264589
  0
VERTEX
  8
0
 10
1.681437
 20
5.747738
  0
VERTEX
  8
0
 10
2.115076
 20
5.088861
 42
-0.019195
  0
SEQEND
  8
0
  0
POLYLINE
  8
0
 66
1
 70
1
  0
VERTEX
  8
0
 10
3.213906
 20
5.223583
  0
VERTEX
  8
0
 10
3.205485
 20
5.179378
  0
VERTEX
  8
0
 10
2.493982
 20
5.170956
 42
0.165335
  0
VERTEX
  8
0
 10
2.378992
 20
5.074801
 42
0.053319
  0
VERTEX
  8
0
 10
2.316784
 20
4.939082
 42
-0.023658
  0
VERTEX
  8
0
 10
2.281892
 20
4.854113
 42
-0.137129
  0
VERTEX
  8
0
 10
2.286317
 20
4.911487
 42
-0.044921
  0
VERTEX
  8
0
 10
2.323997
 20
5.022744
 42
-0.062521
  0
VERTEX
  8
0
 10
2.393647
 20
5.142053
 42
-0.127828
  0
VERTEX
  8
0
 10
2.493982
 20
5.223583
  0
SEQEND
  8
0
  0
POLYLINE
  8
0
 66
1
 70
1
  0
VERTEX
  8
0
 10
1.963512
 20
4.853096
  0
VERTEX
  8
0
 10
2.001404
 20
4.890987
  0
VERTEX
  8
0
 10
2.243483
 20
4.890987
  0
VERTEX
  8
0
 10
2.235062
 20
4.853096
  0
SEQEND
  8
0
  0
POLYLINE
  8
0
 66
1
 70
1
  0
VERTEX
  8
0
 10
2.228747
 20
4.232111
  0
VERTEX
  8
0
 10
2.249799
 20
4.465769
 42
-0.007361
  0
VERTEX
  8
0
 10
2.276183
 20
4.405269
 42
0.015256
  0
VERTEX
  8
0
 10
2.314341
 20
4.320212
 42
0.043324
  0
VERTEX
  8
0
 10
2.363469
 20
4.238425
 42
-0.214532
  0
VERTEX
  8
0
 10
2.334348
 20
4.226116
 42
-0.04774
  0
VERTEX
  8
0
 10
2.294534
 20
4.229811
 42
0.02154
  0
VERTEX
  8
0
 10
2.261713
 20
4.233861
 42
0.067708
  0
SEQEND
  8
0
  0
POLYLINE
  8
0
 66
1
 70
1
  0
VERTEX
  8
0
 10
2.736061
 20
4.057392
 42
0.046146
  0
VERTEX
  8
0
 10
2.727134
 20
4.036341
 42
0.013949
  0
VERTEX
  8
0
 10
2.720421
 20
4.013319
 42
-0.055403
  0
VERTEX
  8
0
 10
2.705581
 20
3.97089
 42
-0.199843
  0
VERTEX
  8
0
 10
2.675015
 20
3.943721
 42
-0.102315
  0
VERTEX
  8
0
 10
2.625021
 20
4.216585
 42
-0.051469
  0
VERTEX
  8
0
 10
2.660281
 20
4.497344
 42
-0.341839
  0
VERTEX
  8
0
 10
2.674358
 20
4.508462
 42
-0.104247
  0
VERTEX
  8
0
 10
2.697118
 20
4.504187
 42
-0.047817
  0
VERTEX
  8
0
 10
2.727642
 20
4.488925
  0
VERTEX
  8
0
 10
2.727642
 20
4.488925
 42
-0.007689
  0
VERTEX
  8
0
 10
2.716334
 20
4.444333
 42
0.038009
  0
VERTEX
  8
0
 10
2.691237
 20
4.324454
 42
0.121236
  0
VERTEX
  8
0
 10
2.704486
 20
4.200535
 42
0.232921
  0
VERTEX
  8
0
 10
2.727642
 20
4.276317
  0
VERTEX
  8
0
 10
2.742376
 20
4.276317
 42
-0.072626
  0
VERTEX
  8
0
 10
2.750452
 20
4.199991
 42
-0.024683
  0
VERTEX
  8
0
 10
2.743119
 20
4.122043
 42
0.012498
  0
SEQEND
  8
0
  0
POLYLINE
  8
0
 66
1
 70
1
  0
VERTEX
  8
0
 10
2.585017
 20
4.557722
  0
VERTEX
  8
0
 10
2.538189
 20
4.47419
 42
-0.047113
  0
VERTEX
  8
0
 10
2.588709
 20
4.619438
 42
-0.131081
  0
VERTEX
  8
0
 10
2.689751
 20
4.739425
 42
0.019148
  0
VERTEX
  8
0
 10
2.711007
 20
4.7392
 42
-0.074867
  0
VERTEX
  8
0
 10
2.750242
 20
4.735995
 42
-0.219786
  0
VERTEX
  8
0
 10
2.780268
 20
4.709954
 42
-0.012299
  0
VERTEX
  8
0
 10
2.737527
 20
4.688455
 42
0.048455
  0
VERTEX
  8
0
 10
2.651199
 20
4.639635
 42
0.132269
  0
SEQEND
  8
0
  0
POLYLINE
  8
0
 66
1
 70
1
  0
VERTEX
  8
0
 10
3.220221
 20
3.859518
 42
-0.226727
  0
VERTEX
  8
0
 10
3.172076
 20
3.896181
 42
-0.062217
  0
VERTEX
  8
0
 10
3.149983
 20
3.957709
 42
0.026405
  0
VERTEX
  8
0
 10
3.138124
 20
3.996346
 42
0.009309
  0
VERTEX
  8
0
 10
3.132863
 20
4.094445
 42
-0.027622
  0
VERTEX
  8
0
 10
3.128054
 20
4.257725
 42
-0.078314
  0
VERTEX
  8
0
 10
3.159175
 20
4.421564
 42
-0.105666
  0
VERTEX
  8
0
 10
3.17049
 20
4.436818
 42
-0.034599
  0
VERTEX
  8
0
 10
3.18735
 20
4.449331
 42
0.051729
  0
VERTEX
  8
0
 10
3.22864
 20
4.48261
  0
VERTEX
  8
0
 10
3.243376
 20
4.497344
 42
0.072977
  0
VERTEX
  8
0
 10
3.182329
 20
4.314207
  0
VERTEX
  8
0
 10
3.197065
 20
4.299472
 42
0.021656
  0
VERTEX
  8
0
 10
3.214547
 20
4.353807
 42
-0.026633
  0
VERTEX
  8
0
 10
3.231144
 20
4.404566
 42
-0.074683
  0
VERTEX
  8
0
 10
3.258111
 20
4.451033
 42
0.058643
  0
VERTEX
  8
0
 10
3.229167
 20
4.268159
 42
0.04957
  0
VERTEX
  8
0
 10
3.234956
 20
4.048972
 42
0.242888
  0
VERTEX
  8
0
 10
3.255503
 20
4.075367
 42
0.053619
  0
VERTEX
  8
0
 10
3.259783
 20
4.117101
 42
-0.041973
  0
VERTEX
  8
0
 10
3.263626
 20
4.159441
 42
-0.154887
  0
VERTEX
  8
0
 10
3.281267
 20
4.194221
  0
VERTEX
  8
0
 10
3.281267
 20
4.217375
 42
0.023481
  0
VERTEX
  8
0
 10
3.287521
 20
4.217749
 42
-0.093834
  0
VERTEX
  8
0
 10
3.298477
 20
4.217393
 42
-0.081036
  0
VERTEX
  8
0
 10
3.304266
 20
4.21468
 42
-0.059965
  0
VERTEX
  8
0
 10
3.310737
 20
4.208954
 42
0.004441
  0
VERTEX
  8
0
 10
3.308606
 20
4.173533
 42
-0.03831
  0
VERTEX
  8
0
 10
3.290914
 20
4.012591
 42
-0.134702
  0
SEQEND
  8
0
  0
POLYLINE
  8
0
 66
1
 70
1
  0
VERTEX
  8
0
 10
3.138124
 20
4.573128
 42
0.131121
  0
VERTEX
  8
0
 10
3.099944
 20
4.535646
 42
0.045122
  0
VERTEX
  8
0
 10
3.077858
 20
4.487608
 42
-0.048821
  0
VERTEX
  8
0
 10
3.053922
 20
4.436299
  0
VERTEX
  8
0
 10
3.024451
 20
4.421564
 42
-0.091073
  0
VERTEX
  8
0
 10
3.068921
 20
4.59786
 42
-0.14543
  0
VERTEX
  8
0
 10
3.19075
 20
4.739425
 42
-0.219455
  0
VERTEX
  8
0
 10
3.272583
 20
4.722057
 42
-0.089736
  0
VERTEX
  8
0
 10
3.327578
 20
4.663643
 42
-0.108038
  0
VERTEX
  8
0
 10
3.292024
 20
4.646488
 42
-0.030131
  0
VERTEX
  8
0
 10
3.249301
 20
4.638614
 42
0.070063
  0
VERTEX
  8
0
 10
3.183921
 20
4.623012
 42
0.211969
  0
SEQEND
  8
0
  0
POLYLINE
  8
0
 66
1
 70
1
  0
VERTEX
  8
0
 10
3.371783
 20
4.82994
 42
0.256614
  0
VERTEX
  8
0
 10
3.365
 20
4.820118
 42
0.061954
  0
VERTEX
  8
0
 10
3.365234
 20
4.806085
 42
-0.014291
  0
VERTEX
  8
0
 10
3.36579
 20
4.798805
 42
-0.050018
  0
VERTEX
  8
0
 10
3.365468
 20
4.79205
 42
-0.011201
  0
VERTEX
  8
0
 10
2.365653
 20
4.77855
 42
-0.034742
  0
VERTEX
  8
0
 10
2.286837
 20
4.782983
 42
-0.100509
  0
VERTEX
  8
0
 10
2.250473
 20
4.793423
 42
-0.625456
  0
VERTEX
  8
0
 10
2.248818
 20
4.805578
 42
-0.120314
  0
VERTEX
  8
0
 10
2.274131
 20
4.81516
  0
VERTEX
  8
0
 10
2.773953
 20
4.800471
 42
0.013649
  0
VERTEX
  8
0
 10
2.798773
 20
4.834781
 42
-0.040102
  0
VERTEX
  8
0
 10
2.846742
 20
4.896351
 42
-0.132131
  0
VERTEX
  8
0
 10
2.910781
 20
4.937297
  0
VERTEX
  8
0
 10
3.849626
 20
4.928878
 42
0.019509
  0
VERTEX
  8
0
 10
3.896218
 20
4.903732
 42
-0.023747
  0
VERTEX
  8
0
 10
3.947152
 20
4.875873
 42
-0.06871
  0
VERTEX
  8
0
 10
3.992769
 20
4.83836
 42
0.066151
  0
VERTEX
  8
0
 10
3.929709
 20
4.845015
 42
0.019925
  0
VERTEX
  8
0
 10
3.862833
 20
4.840754
 42
-0.003249
  0
VERTEX
  8
0
 10
3.834892
 20
4.83836
 42
-0.057849
  0
VERTEX
  8
0
 10
3.784897
 20
4.828362
 42
-0.080986
  0
VERTEX
  8
0
 10
3.742533
 20
4.831256
 42
-0.162175
  0
VERTEX
  8
0
 10
3.706483
 20
4.853096
 42
-0.029076
  0
VERTEX
  8
0
 10
3.485456
 20
4.844676
 42
-0.194985
  0
VERTEX
  8
0
 10
3.462721
 20
4.841729
 42
-0.046231
  0
VERTEX
  8
0
 10
3.436956
 20
4.850402
 42
0.025078
  0
VERTEX
  8
0
 10
3.417465
 20
4.857542
 42
0.096392
  0
VERTEX
  8
0
 10
3.399254
 20
4.85978
 42
0.178879
  0
VERTEX
  8
0
 10
3.3836
 20
4.852213
 42
0.120936
  0
SEQEND
  8
0
  0
POLYLINE
  8
0
 66
1
 70
1
  0
VERTEX
  8
0
 10
3.689643
 20
4.208954
 42
-0.201694
  0
VERTEX
  8
0
 10
3.727535
 20
4.579442
 42
-0.16637
  0
VERTEX
  8
0
 10
4.001189
 20
4.754158
 42
0.321903
  0
VERTEX
  8
0
 10
3.955684
 20
4.777672
 42
0.07151
  0
VERTEX
  8
0
 10
3.898858
 20
4.761494
 42
-0.011698
  0
VERTEX
  8
0
 10
3.879097
 20
4.754158
 42
0.261858
  0
VERTEX
  8
0
 10
3.637018
 20
4.421564
 42
0.200423
  0
VERTEX
  8
0
 10
3.698064
 20
4.124753
  0
VERTEX
  8
0
 10
3.660174
 20
4.124753
 42
0.165244
  0
VERTEX
  8
0
 10
3.655816
 20
4.137462
 42
0.052877
  0
VERTEX
  8
0
 10
3.646149
 20
4.147283
 42
-0.042504
  0
VERTEX
  8
0
 10
3.637018
 20
4.156328
 42
0.214068
  0
VERTEX
  8
0
 10
3.621469
 20
4.149352
 42
0.090381
  0
VERTEX
  8
0
 10
3.614895
 20
4.136258
 42
-0.03605
  0
VERTEX
  8
0
 10
3.611697
 20
4.128515
 42
-0.132483
  0
VERTEX
  8
0
 10
3.606799
 20
4.122916
 42
-0.159028
  0
VERTEX
  8
0
 10
3.598323
 20
4.121112
 42
-0.07869
  0
VERTEX
  8
0
 10
3.584392
 20
4.124753
 42
0.182469
  0
VERTEX
  8
0
 10
3.570972
 20
4.145014
 42
0.241812
  0
VERTEX
  8
0
 10
3.546501
 20
4.14791
 42
-0.085649
  0
VERTEX
  8
0
 10
3.541717
 20
4.133518
 42
-0.187547
  0
VERTEX
  8
0
 10
3.535014
 20
4.127693
 42
-0.134512
  0
VERTEX
  8
0
 10
3.526677
 20
4.127711
 42
-0.031931
  0
VERTEX
  8
0
 10
3.516991
 20
4.130846
 42
0.051183
  0
VERTEX
  8
0
 10
3.501867
 20
4.13526
 42
0.150262
  0
VERTEX
  8
0
 10
3.485456
 20
4.133174
 42
0.0854
  0
VERTEX
  8
0
 10
3.403358
 20
4.800471
 42
-0.345271
  0
VERTEX
  8
0
 10
3.422637
 20
4.808848
 42
-0.069079
  0
VERTEX
  8
0
 10
3.447012
 20
4.799428
 42
0.026233
  0
VERTEX
  8
0
 10
3.460377
 20
4.793398
 42
0.049308
  0
VERTEX
  8
0
 10
3.466039
 20
4.791884
 42
0.105613
  0
VERTEX
  8
0
 10
3.470719
 20
4.79205
 42
-0.108045
  0
VERTEX
  8
0
 10
3.484929
 20
4.805117
 42
-0.133371
  0
VERTEX
  8
0
 10
3.499139
 20
4.808562
 42
-0.081116
  0
VERTEX
  8
0
 10
3.513349
 20
4.805593
 42
-0.023724
  0
VERTEX
  8
0
 10
3.527559
 20
4.799417
 42
0.023741
  0
VERTEX
  8
0
 10
3.541767
 20
4.793242
 42
0.081125
  0
VERTEX
  8
0
 10
3.555975
 20
4.790274
 42
0.13336
  0
VERTEX
  8
0
 10
3.570184
 20
4.79372
 42
0.10803
  0
VERTEX
  8
0
 10
3.584392
 20
4.806786
 42
0.219381
  0
VERTEX
  8
0
 10
3.620965
 20
4.791163
 42
0.071521
  0
VERTEX
  8
0
 10
3.659497
 20
4.799233
 42
-0.072291
  0
VERTEX
  8
0
 10
3.693592
 20
4.806494
 42
-0.261015
  0
VERTEX
  8
0
 10
3.721219
 20
4.79205
 42
0.13453
  0
VERTEX
  8
0
 10
3.744774
 20
4.789831
 42
0.06826
  0
VERTEX
  8
0
 10
3.763723
 20
4.797304
 42
-0.021422
  0
VERTEX
  8
0
 10
3.77731
 20
4.80359
 42
0.146684
  0
VERTEX
  8
0
 10
3.785767
 20
4.798207
 42
0.094565
  0
VERTEX
  8
0
 10
3.796459
 20
4.79748
 42
0.050417
  0
VERTEX
  8
0
 10
3.82259
 20
4.804114
 42
-0.092773
  0
VERTEX
  8
0
 10
3.865281
 20
4.812321
 42
-0.132331
  0
VERTEX
  8
0
 10
3.88525
 20
4.805683
 42
-0.124725
  0
VERTEX
  8
0
 10
3.902253
 20
4.785735
 42
-0.213128
  0
VERTEX
  8
0
 10
3.929481
 20
4.798696
 42
-0.081027
  0
VERTEX
  8
0
 10
3.956907
 20
4.793044
 42
0.081924
  0
VERTEX
  8
0
 10
3.98375
 20
4.787514
 42
0.220723
  0
VERTEX
  8
0
 10
4.00961
 20
4.800471
 42
-0.035788
  0
VERTEX
  8
0
 10
4.061343
 20
4.785911
 42
-0.009516
  0
VERTEX
  8
0
 10
4.116369
 20
4.765272
 42
0.000161
  0
VERTEX
  8
0
 10
4.123282
 20
4.762581
 42
-0.266163
  0
VERTEX
  8
0
 10
4.173539
 20
4.768105
 42
-0.168525
  0
VERTEX
  8
0
 10
4.189886
 20
4.753403
 42
-0.21765
  0
VERTEX
  8
0
 10
4.190643
 20
4.731004
 42
-0.058633
  0
VERTEX
  8
0
 10
4.215423
 20
4.716125
 42
-0.20546
  0
VERTEX
  8
0
 10
4.223501
 20
4.703984
 42
-0.267448
  0
VERTEX
  8
0
 10
4.21706
 20
4.694171
 42
-0.073922
  0
VERTEX
  8
0
 10
4.198284
 20
4.686277
 42
-0.037841
  0
VERTEX
  8
0
 10
4.04348
 20
4.665695
 42
0.007772
  0
VERTEX
  8
0
 10
3.940143
 20
4.655222
 42
0.026519
  0
VERTEX
  8
0
 10
3.887517
 20
4.413143
 42
-0.003566
  0
VERTEX
  8
0
 10
3.887143
 20
4.375307
 42
0.055198
  0
VERTEX
  8
0
 10
3.89834
 20
4.193415
 42
0.174475
  0
VERTEX
  8
0
 10
3.992769
 20
4.027922
 42
-0.122925
  0
VERTEX
  8
0
 10
3.815946
 20
4.074232
 42
-0.147168
  0
SEQEND
  8
0
  0
POLYLINE
  8
0
 66
1
 70
1
  0
VERTEX
  8
0
 10
3.948564
 20
4.162644
 42
-0.073613
  0
VERTEX
  8
0
 10
3.924881
 20
4.35736
 42
-0.177419
  0
VERTEX
  8
0
 10
3.986454
 20
4.526817
 42
0.004066
  0
VERTEX
  8
0
 10
4.073192
 20
4.521413
 42
-0.034859
  0
VERTEX
  8
0
 10
4.304315
 20
4.497344
 42
0.108314
  0
VERTEX
  8
0
 10
4.251689
 20
4.255791
 42
0.157288
  0
VERTEX
  8
0
 10
4.31905
 20
4.011082
  0
VERTEX
  8
0
 10
4.371676
 20
3.958456
 42
0.032263
  0
VERTEX
  8
0
 10
4.248187
 20
3.982723
 42
-0.069513
  0
VERTEX
  8
0
 10
4.069234
 20
4.026899
 42
-0.218263
  0
SEQEND
  8
0
  0
POLYLINE
  8
0
 66
1
 70
1
  0
VERTEX
  8
0
 10
4.342206
 20
4.057392
 42
-0.140692
  0
VERTEX
  8
0
 10
4.294316
 20
4.275527
 42
-0.120549
  0
VERTEX
  8
0
 10
4.35694
 20
4.488925
  0
VERTEX
  8
0
 10
4.371676
 20
4.488925
 42
-0.09444
  0
VERTEX
  8
0
 10
4.372352
 20
4.44127
 42
-0.028159
  0
VERTEX
  8
0
 10
4.361179
 20
4.392561
 42
0.088385
  0
VERTEX
  8
0
 10
4.349447
 20
4.316141
 42
0.129782
  0
VERTEX
  8
0
 10
4.361497
 20
4.28304
 42
0.119075
  0
VERTEX
  8
0
 10
4.394831
 20
4.255265
 42
-0.060446
  0
VERTEX
  8
0
 10
4.402779
 20
4.254109
 42
-0.016318
  0
VERTEX
  8
0
 10
4.411382
 20
4.251539
 42
0.022416
  0
VERTEX
  8
0
 10
4.421858
 20
4.248504
 42
0.080541
  0
VERTEX
  8
0
 10
4.431868
 20
4.247649
 42
0.152307
  0
VERTEX
  8
0
 10
4.440654
 20
4.25125
 42
0.128754
  0
VERTEX
  8
0
 10
4.447457
 20
4.261581
  0
VERTEX
  8
0
 10
4.463994
 20
4.260542
 42
-0.007192
  0
VERTEX
  8
0
 10
4.466186
 20
4.198371
 42
0.039214
  0
VERTEX
  8
0
 10
4.477136
 20
4.056919
 42
0.12228
  0
VERTEX
  8
0
 10
4.531658
 20
3.928985
 42
-0.098564
  0
VERTEX
  8
0
 10
4.421934
 20
3.969507
 42
-0.144218
  0
SEQEND
  8
0
  0
POLYLINE
  8
0
 66
1
 70
1
  0
VERTEX
  8
0
 10
4.479033
 20
4.672063
  0
VERTEX
  8
0
 10
4.409567
 20
4.299472
  0
VERTEX
  8
0
 10
4.388517
 20
4.299472
 42
-0.068654
  0
VERTEX
  8
0
 10
4.502187
 20
4.800471
 42
0.002838
  0
VERTEX
  8
0
 10
4.509175
 20
4.844511
 42
-0.0605
  0
VERTEX
  8
0
 10
4.563574
 20
5.0721
 42
-0.237181
  0
VERTEX
  8
0
 10
4.721112
 20
5.223583
 42
-0.051086
  0
VERTEX
  8
0
 10
4.836113
 20
5.216688
 42
-0.016291
  0
VERTEX
  8
0
 10
4.951582
 20
5.194065
 42
0.017556
  0
VERTEX
  8
0
 10
5.070549
 20
5.170956
 42
0.148169
  0
VERTEX
  8
0
 10
5.091193
 20
5.170938
 42
0.053136
  0
VERTEX
  8
0
 10
5.109287
 20
5.179027
 42
-0.032756
  0
VERTEX
  8
0
 10
5.123174
 20
5.185692
 42
0.036346
  0
VERTEX
  8
0
 10
5.011271
 20
5.219532
 42
-0.007231
  0
VERTEX
  8
0
 10
4.963192
 20
5.232003
  0
VERTEX
  8
0
 10
5.236846
 20
5.208847
 42
-0.066467
  0
VERTEX
  8
0
 10
5.238227
 20
5.194593
 42
-0.015186
  0
VERTEX
  8
0
 10
5.237311
 20
5.176911
 42
0.048668
  0
VERTEX
  8
0
 10
5.237074
 20
5.140139
 42
0.191399
  0
VERTEX
  8
0
 10
5.251582
 20
5.109911
  0
VERTEX
  8
0
 10
5.114754
 20
5.095176
 42
0.049907
  0
VERTEX
  8
0
 10
5.132799
 20
5.013744
 42
0.015732
  0
VERTEX
  8
0
 10
5.162121
 20
4.932907
 42
-0.040632
  0
VERTEX
  8
0
 10
5.205271
 20
4.800471
  0
VERTEX
  8
0
 10
5.260001
 20
4.724687
  0
VERTEX
  8
0
 10
5.563126
 20
4.731004
 42
-0.880048
  0
VERTEX
  8
0
 10
5.566597
 20
4.732768
 42
-0.074356
  0
VERTEX
  8
0
 10
5.573126
 20
4.723011
 42
-0.024049
  0
VERTEX
  8
0
 10
5.591019
 20
4.682851
 42
-0.00933
  0
VERTEX
  8
0
 10
5.615753
 20
4.617332
  0
VERTEX
  8
0
 10
5.146329
 20
4.596282
 42
-0.015552
  0
VERTEX
  8
0
 10
5.080263
 20
4.763389
 42
0.049439
  0
VERTEX
  8
0
 10
4.948456
 20
5.057286
 42
0.072091
  0
VERTEX
  8
0
 10
4.820575
 20
5.084914
 42
0.021783
  0
VERTEX
  8
0
 10
4.683221
 20
5.088861
  0
VERTEX
  8
0
 10
4.683221
 20
5.088861
 42
0.192533
  0
VERTEX
  8
0
 10
4.568393
 20
4.977224
 42
0.057797
  0
VERTEX
  8
0
 10
4.520043
 20
4.816172
 42
-0.046795
  0
SEQEND
  8
0
  0
POLYLINE
  8
0
 66
1
 70
1
  0
VERTEX
  8
0
 10
4.895831
 20
3.535343
 42
-0.256847
  0
VERTEX
  8
0
 10
4.793183
 20
3.59452
 42
-0.080011
  0
VERTEX
  8
0
 10
4.753884
 20
3.708738
 42
0.043176
  0
VERTEX
  8
0
 10
4.729532
 20
3.792157
 42
-0.056179
  0
VERTEX
  8
0
 10
4.731637
 20
4.065286
 42
-0.138799
  0
VERTEX
  8
0
 10
4.834783
 20
4.322626
  0
VERTEX
  8
0
 10
4.881094
 20
4.345782
 42
-0.244684
  0
VERTEX
  8
0
 10
5.003211
 20
4.220688
 42
-0.062148
  0
VERTEX
  8
0
 10
5.037455
 20
4.034603
 42
0.000452
  0
VERTEX
  8
0
 10
5.038972
 20
4.019501
 42
-0.078728
  0
VERTEX
  8
0
 10
5.025027
 20
3.757687
 42
-0.164567
  0
SEQEND
  8
0
  0
POLYLINE
  8
0
 66
1
 70
1
  0
VERTEX
  8
0
 10
5.032657
 20
4.383674
 42
-0.014504
  0
VERTEX
  8
0
 10
5.002997
 20
4.404393
 42
0.070839
  0
VERTEX
  8
0
 10
4.933
 20
4.446083
 42
0.258519
  0
VERTEX
  8
0
 10
4.857939
 20
4.436299
 42
-0.170087
  0
VERTEX
  8
0
 10
4.837817
 20
4.44163
 42
-0.112615
  0
VERTEX
  8
0
 10
4.824014
 20
4.457375
 42
-0.062824
  0
VERTEX
  8
0
 10
4.808132
 20
4.50175
 42
0.004289
  0
VERTEX
  8
0
 10
4.805314
 20
4.512081
 42
0.091363
  0
VERTEX
  8
0
 10
4.812176
 20
4.52312
 42
0.128061
  0
VERTEX
  8
0
 10
4.813241
 20
4.532506
 42
0.202587
  0
VERTEX
  8
0
 10
4.803998
 20
4.546024
 42
0.110265
  0
VERTEX
  8
0
 10
4.789625
 20
4.552043
 42
0.09731
  0
VERTEX
  8
0
 10
4.784276
 20
4.552056
 42
0.367234
  0
VERTEX
  8
0
 10
4.782158
 20
4.549971
  0
VERTEX
  8
0
 10
4.750582
 20
4.535235
 42
0.069678
  0
VERTEX
  8
0
 10
4.704009
 20
4.483137
 42
0.03478
  0
VERTEX
  8
0
 10
4.668486
 20
4.421564
 42
-0.109339
  0
VERTEX
  8
0
 10
4.703555
 20
4.532208
 42
-0.053098
  0
VERTEX
  8
0
 10
4.759003
 20
4.611018
  0
VERTEX
  8
0
 10
4.782158
 20
4.634172
 42
-0.140596
  0
VERTEX
  8
0
 10
4.86136
 20
4.689693
 42
-0.159675
  0
VERTEX
  8
0
 10
4.948456
 20
4.693114
 42
-0.134623
  0
VERTEX
  8
0
 10
5.020687
 20
4.644407
 42
-0.04162
  0
VERTEX
  8
0
 10
5.072989
 20
4.57215
 42
0.023189
  0
VERTEX
  8
0
 10
5.108439
 20
4.5205
 42
-0.082639
  0
VERTEX
  8
0
 10
5.088997
 20
4.472339
 42
-0.024428
  0
VERTEX
  8
0
 10
5.05989
 20
4.428736
 42
0.013723
  0
VERTEX
  8
0
 10
5.042743
 20
4.403937
 42
0.068021
  0
SEQEND
  8
0
  0
POLYLINE
  8
0
 66
1
 70
1
  0
VERTEX
  8
0
 10
5.887303
 20
3.783737
 42
-0.121216
  0
VERTEX
  8
0
 10
5.882193
 20
3.821938
 42
-0.173056
  0
VERTEX
  8
0
 10
5.894864
 20
3.845768
 42
-0.094251
  0
VERTEX
  8
0
 10
5.919276
 20
3.859987
 42
-0.025037
  0
VERTEX
  8
0
 10
5.949387
 20
3.869354
 42
0.02331
  0
VERTEX
  8
0
 10
5.977991
 20
3.878175
 42
0.089718
  0
VERTEX
  8
0
 10
6.000975
 20
3.891093
  0
VERTEX
  8
0
 10
6.017815
 20
3.891093
 42
0.012891
  0
VERTEX
  8
0
 10
6.01346
 20
3.841113
 42
-0.009649
  0
VERTEX
  8
0
 10
6.009394
 20
3.792157
  0
SEQEND
  8
0
  0
POLYLINE
  8
0
 66
1
 70
1
  0
VERTEX
  8
0
 10
5.925193
 20
3.686906
 42
0.049302
  0
VERTEX
  8
0
 10
5.933537
 20
3.705174
 42
-0.044465
  0
VERTEX
  8
0
 10
5.941684
 20
3.72328
 42
-0.108579
  0
VERTEX
  8
0
 10
5.956769
 20
3.739531
 42
-0.161529
  0
VERTEX
  8
0
 10
6.02453
 20
3.73599
 42
-0.057199
  0
VERTEX
  8
0
 10
6.081695
 20
3.703941
 42
0.013094
  0
VERTEX
  8
0
 10
6.108332
 20
3.686906
  0
SEQEND
  8
0
  0
POLYLINE
  8
0
 66
1
 70
1
  0
VERTEX
  8
0
 10
7.002972
 20
3.678485
 42
0.015664
  0
VERTEX
  8
0
 10
6.60827
 20
3.674275
 42
-0.015662
  0
VERTEX
  8
0
 10
6.213583
 20
3.670065
 42
0.043684
  0
VERTEX
  8
0
 10
6.186784
 20
3.688347
 42
0.011318
  0
VERTEX
  8
0
 10
6.154037
 20
3.706041
 42
-0.021107
  0
VERTEX
  8
0
 10
6.106432
 20
3.732586
 42
-0.078869
  0
VERTEX
  8
0
 10
6.068329
 20
3.764476
 42
-0.17159
  0
VERTEX
  8
0
 10
6.052182
 20
3.805518
 42
-0.150007
  0
VERTEX
  8
0
 10
6.07044
 20
3.859518
  0
VERTEX
  8
0
 10
6.07044
 20
3.882674
 42
0.00538
  0
VERTEX
  8
0
 10
6.447353
 20
3.898703
 42
-0.021216
  0
VERTEX
  8
0
 10
7.16085
 20
3.91425
 42
-0.271578
  0
VERTEX
  8
0
 10
7.150597
 20
3.819094
 42
-0.07084
  0
VERTEX
  8
0
 10
7.07314
 20
3.743931
 42
0.012761
  0
VERTEX
  8
0
 10
7.035053
 20
3.711999
 42
0.043879
  0
SEQEND
  8
0
  0
POLYLINE
  8
0
 66
1
 70
1
  0
VERTEX
  8
0
 10
7.941819
 20
4.255265
 42
0.046241
  0
VERTEX
  8
0
 10
7.940354
 20
4.233466
 42
0.011963
  0
VERTEX
  8
0
 10
7.941421
 20
4.208293
 42
-0.075237
  0
VERTEX
  8
0
 10
7.938743
 20
4.141219
 42
-0.27705
  0
VERTEX
  8
0
 10
7.895508
 20
4.095283
 42
-0.002314
  0
VERTEX
  8
0
 10
7.621768
 20
4.044222
 42
0.006541
  0
VERTEX
  8
0
 10
7.175586
 20
3.958456
  0
VERTEX
  8
0
 10
6.038865
 20
3.928985
  0
VERTEX
  8
0
 10
5.190535
 20
4.011082
 42
-0.104659
  0
VERTEX
  8
0
 10
5.136818
 20
4.196954
 42
-0.027761
  0
VERTEX
  8
0
 10
5.129462
 20
4.399514
 42
0.000449
  0
VERTEX
  8
0
 10
5.129489
 20
4.421564
 42
0.084525
  0
VERTEX
  8
0
 10
5.142602
 20
4.426722
 42
0.10266
  0
VERTEX
  8
0
 10
5.150523
 20
4.434275
 42
0.091863
  0
VERTEX
  8
0
 10
5.157908
 20
4.454192
 42
-0.021268
  0
VERTEX
  8
0
 10
5.161065
 20
4.465769
  0
VERTEX
  8
0
 10
5.236846
 20
4.48261
  0
VERTEX
  8
0
 10
7.903929
 20
4.541551
 42
-0.158896
  0
VERTEX
  8
0
 10
7.938901
 20
4.510993
 42
-0.104616
  0
VERTEX
  8
0
 10
7.953268
 20
4.465131
 42
-0.056905
  0
VERTEX
  8
0
 10
7.947919
 20
4.350065
 42
0.009858
  0
VERTEX
  8
0
 10
7.942646
 20
4.300323
 42
0.036002
  0
SEQEND
  8
0
  0
POLYLINE
  8
0
 66
1
 70
1
  0
VERTEX
  8
0
 10
1.567765
 20
4.844676
 42
0.124887
  0
VERTEX
  8
0
 10
1.591553
 20
4.885399
 42
0.061744
  0
VERTEX
  8
0
 10
1.600754
 20
4.940309
 42
0.035502
  0
VERTEX
  8
0
 10
1.595444
 20
5.067035
 42
-0.010097
  0
VERTEX
  8
0
 10
1.590921
 20
5.126751
  0
VERTEX
  8
0
 10
1.561451
 20
5.126751
 42
-0.008974
  0
VERTEX
  8
0
 10
1.561216
 20
5.029205
 42
0.039851
  0
SEQEND
  8
0
  0
POLYLINE
  8
0
 66
1
 70
1
  0
VERTEX
  8
0
 10
1.599342
 20
4.79205
  0
VERTEX
  8
0
 10
1.561451
 20
4.79205
  0
VERTEX
  8
0
 10
1.561451
 20
4.611018
 42
0.319139
  0
VERTEX
  8
0
 10
1.599334
 20
4.651837
 42
0.068086
  0
VERTEX
  8
0
 10
1.599348
 20
4.721642
 42
-0.015229
  0
VERTEX
  8
0
 10
1.596974
 20
4.758573
 42
-0.055714
  0
SEQEND
  8
0
  0
POLYLINE
  8
0
 66
1
 70
1
  0
VERTEX
  8
0
 10
1.590921
 20
5.185692
 42
-0.046605
  0
VERTEX
  8
0
 10
1.594883
 20
5.23164
 42
0.060232
  0
VERTEX
  8
0
 10
1.598476
 20
5.28421
 42
0.18844
  0
VERTEX
  8
0
 10
1.576186
 20
5.33094
 42
0.093262
  0
VERTEX
  8
0
 10
1.558293
 20
5.25358
 42
0.104839
  0
VERTEX
  8
0
 10
1.564937
 20
5.213715
 42
0.182679
  0
SEQEND
  8
0
  0
POLYLINE
  8
0
 66
1
 70
1
  0
VERTEX
  8
0
 10
1.590921
 20
5.474083
 42
0.075659
  0
VERTEX
  8
0
 10
1.590921
 20
5.724582
  0
VERTEX
  8
0
 10
1.567765
 20
5.724582
 42
0.042064
  0
VERTEX
  8
0
 10
1.565229
 20
5.615846
 42
-0.044373
  0
VERTEX
  8
0
 10
1.561451
 20
5.488818
 42
0.054634
  0
VERTEX
  8
0
 10
1.566351
 20
5.480891
 42
0.102034
  0
VERTEX
  8
0
 10
1.572239
 20
5.475925
 42
0.099203
  0
VERTEX
  8
0
 10
1.5801
 20
5.473721
 42
0.054625
  0
SEQEND
  8
0
  0
POLYLINE
  8
0
 66
1
 70
1
  0
VERTEX
  8
0
 10
1.576186
 20
6.042443
 42
-0.012587
  0
VERTEX
  8
0
 10
1.572367
 20
6.01
 42
0.05212
  0
VERTEX
  8
0
 10
1.567095
 20
5.927525
 42
0.093005
  0
VERTEX
  8
0
 10
1.575999
 20
5.891992
 42
0.163205
  0
VERTEX
  8
0
 10
1.599342
 20
5.867724
 42
0.127572
  0
VERTEX
  8
0
 10
1.590921
 20
6.042443
  0
SEQEND
  8
0
  0
POLYLINE
  8
0
 66
1
 70
1
  0
VERTEX
  8
0
 10
1.628812
 20
6.322412
  0
VERTEX
  8
0
 10
1.605657
 20
6.322412
  0
VERTEX
  8
0
 10
1.567765
 20
6.111908
  0
VERTEX
  8
0
 10
1.590921
 20
6.095068
  0
SEQEND
  8
0
  0
POLYLINE
  8
0
 66
1
 70
1
  0
VERTEX
  8
0
 10
1.719329
 20
6.549757
 42
0.122537
  0
VERTEX
  8
0
 10
1.653546
 20
6.47108
 42
0.087112
  0
VERTEX
  8
0
 10
1.622497
 20
6.368724
  0
VERTEX
  8
0
 10
1.643547
 20
6.368724
 42
-0.046873
  0
VERTEX
  8
0
 10
1.68169
 20
6.456694
 42
0.015967
  0
VERTEX
  8
0
 10
1.704537
 20
6.503909
 42
0.055584
  0
SEQEND
  8
0
  0
POLYLINE
  8
0
 66
1
 70
1
  0
VERTEX
  8
0
 10
2.001404
 20
5.109911
  0
VERTEX
  8
0
 10
1.931938
 20
5.217267
  0
VERTEX
  8
0
 10
1.946672
 20
5.232003
  0
VERTEX
  8
0
 10
2.030874
 20
5.126751
  0
VERTEX
  8
0
 10
2.054029
 20
5.141487
 42
0.026486
  0
VERTEX
  8
0
 10
1.860368
 20
5.440399
 42
-0.026487
  0
VERTEX
  8
0
 10
1.666703
 20
5.739317
  0
VERTEX
  8
0
 10
1.651968
 20
5.739317
 42
-0.118778
  0
VERTEX
  8
0
 10
1.652997
 20
5.722612
 42
-0.04779
  0
VERTEX
  8
0
 10
1.648585
 20
5.708021
 42
0.023718
  0
VERTEX
  8
0
 10
1.645124
 20
5.697776
 42
0.066598
  0
VERTEX
  8
0
 10
1.643547
 20
5.686692
  0
VERTEX
  8
0
 10
1.84984
 20
5.391986
 42
-0.248086
  0
VERTEX
  8
0
 10
1.840843
 20
5.383626
 42
-0.086571
  0
VERTEX
  8
0
 10
1.828951
 20
5.383486
 42
0.0168
  0
VERTEX
  8
0
 10
1.823445
 20
5.38391
 42
0.056833
  0
VERTEX
  8
0
 10
1.818265
 20
5.383565
 42
-0.015385
  0
VERTEX
  8
0
 10
1.76843
 20
5.456859
 42
0.01798
  0
VERTEX
  8
0
 10
1.714281
 20
5.535913
 42
0.059626
  0
VERTEX
  8
0
 10
1.651968
 20
5.60249
 42
0.048348
  0
VERTEX
  8
0
 10
1.6446
 20
5.466715
 42
-0.048348
  0
VERTEX
  8
0
 10
1.637232
 20
5.33094
  0
VERTEX
  8
0
 10
1.651968
 20
5.316204
  0
VERTEX
  8
0
 10
1.666703
 20
5.354096
 42
0.021776
  0
VERTEX
  8
0
 10
1.694259
 20
5.353748
 42
-0.028737
  0
VERTEX
  8
0
 10
1.724297
 20
5.353113
 42
-0.100442
  0
VERTEX
  8
0
 10
1.750904
 20
5.345675
  0
VERTEX
  8
0
 10
1.736169
 20
5.322519
 42
0.119922
  0
VERTEX
  8
0
 10
1.73006
 20
5.249509
 42
0.203425
  0
VERTEX
  8
0
 10
1.766579
 20
5.18755
 42
-0.152742
  0
VERTEX
  8
0
 10
1.719167
 20
5.175832
 42
-0.139423
  0
VERTEX
  8
0
 10
1.666703
 20
5.194112
 42
-0.142651
  0
VERTEX
  8
0
 10
1.661435
 20
5.200912
 42
-0.037556
  0
VERTEX
  8
0
 10
1.658457
 20
5.210027
 42
0.026405
  0
VERTEX
  8
0
 10
1.656161
 20
5.217428
 42
0.1049
  0
VERTEX
  8
0
 10
1.652684
 20
5.223139
 42
0.186899
  0
VERTEX
  8
0
 10
1.646787
 20
5.225684
 42
0.112949
  0
VERTEX
  8
0
 10
1.637232
 20
5.223583
  0
VERTEX
  8
0
 10
1.628812
 20
4.716269
  0
VERTEX
  8
0
 10
1.666703
 20
4.709954
 42
-0.006018
  0
VERTEX
  8
0
 10
1.780312
 20
4.841311
 42
0.025272
  0
SEQEND
  8
0
  0
POLYLINE
  8
0
 66
1
 70
1
  0
VERTEX
  8
0
 10
1.757219
 20
5.261474
 42
-0.137053
  0
VERTEX
  8
0
 10
1.774586
 20
5.322783
 42
-0.265608
  0
VERTEX
  8
0
 10
1.826686
 20
5.354096
 42
0.034789
  0
VERTEX
  8
0
 10
1.8498
 20
5.346037
 42
-0.037866
  0
VERTEX
  8
0
 10
1.873106
 20
5.337818
 42
-0.102205
  0
VERTEX
  8
0
 10
1.894047
 20
5.322519
 42
-0.019689
  0
VERTEX
  8
0
 10
1.871576
 20
5.300289
 42
0.020156
  0
VERTEX
  8
0
 10
1.849721
 20
5.278657
 42
0.06793
  0
VERTEX
  8
0
 10
1.833001
 20
5.255157
 42
0.307989
  0
VERTEX
  8
0
 10
1.868404
 20
5.255392
 42
0.069099
  0
VERTEX
  8
0
 10
1.899214
 20
5.283019
 42
-0.008431
  0
VERTEX
  8
0
 10
1.908782
 20
5.293049
 42
-0.248096
  0
VERTEX
  8
0
 10
1.905624
 20
5.240686
 42
-0.16221
  0
VERTEX
  8
0
 10
1.864576
 20
5.202532
 42
-0.399587
  0
SEQEND
  8
0
  0
POLYLINE
  8
0
 66
1
 70
1
  0
VERTEX
  8
0
 10
1.803531
 20
4.823626
 42
-0.02446
  0
VERTEX
  8
0
 10
1.740557
 20
4.751742
 42
0.021759
  0
VERTEX
  8
0
 10
1.681101
 20
4.684362
 42
0.072057
  0
VERTEX
  8
0
 10
1.637232
 20
4.611018
  0
VERTEX
  8
0
 10
1.660387
 20
4.602596
  0
VERTEX
  8
0
 10
1.81195
 20
4.768894
 42
0.122785
  0
VERTEX
  8
0
 10
1.82037
 20
4.797839
 42
0.328673
  0
SEQEND
  8
0
  0
POLYLINE
  8
0
 66
1
  0
VERTEX
  8
0
 10
2.001404
 20
5.072021
 42
-0.0125
  0
VERTEX
  8
0
 10
1.826686
 20
4.853096
  0
VERTEX
  8
0
 10
1.833001
 20
4.83836
 42
0.081609
  0
VERTEX
  8
0
 10
1.919504
 20
4.900645
 42
0.023491
  0
VERTEX
  8
0
 10
1.997188
 20
4.985198
 42
-0.024525
  0
VERTEX
  8
0
 10
2.077185
 20
5.072021
  0
VERTEX
  8
0
 10
2.077185
 20
5.095176
 42
0.114924
  0
VERTEX
  8
0
 10
2.039294
 20
5.092281
 42
0.111039
  0
VERTEX
  8
0
 10
2.001404
 20
5.072021
  0
SEQEND
  8
0
  0
POLYLINE
  8
0
 66
1
 70
1
  0
VERTEX
  8
0
 10
2.683436
 20
4.110019
 42
0.125755
  0
VERTEX
  8
0
 10
2.684752
 20
4.065023
 42
0.10395
  0
VERTEX
  8
0
 10
2.69498
 20
4.044597
 42
0.188756
  0
VERTEX
  8
0
 10
2.712906
 20
4.034236
 42
-0.002511
  0
VERTEX
  8
0
 10
2.710652
 20
4.04511
 42
0.034529
  0
VERTEX
  8
0
 10
2.701288
 20
4.082491
 42
0.142537
  0
SEQEND
  8
0
  0
POLYLINE
  8
0
 66
1
 70
1
  0
VERTEX
  8
0
 10
3.221536
 20
4.009343
 42
0.216884
  0
VERTEX
  8
0
 10
3.217062
 20
3.972241
 42
0.125854
  0
VERTEX
  8
0
 10
3.236271
 20
3.939876
 42
0.009698
  0
VERTEX
  8
0
 10
3.238354
 20
3.942074
 42
-0.06367
  0
VERTEX
  8
0
 10
3.244038
 20
3.947293
 42
-0.23807
  0
VERTEX
  8
0
 10
3.251007
 20
3.948297
 42
-0.04383
  0
VERTEX
  8
0
 10
3.245715
 20
3.967917
 42
0.060951
  0
VERTEX
  8
0
 10
3.239048
 20
3.990606
 42
0.1556
  0
SEQEND
  8
0
  0
POLYLINE
  8
0
 66
1
 70
1
  0
VERTEX
  8
0
 10
4.274844
 20
6.036128
 42
-0.006488
  0
VERTEX
  8
0
 10
4.281565
 20
6.165881
 42
0.025107
  0
VERTEX
  8
0
 10
4.289579
 20
6.473975
 42
-0.027728
  0
VERTEX
  8
0
 10
4.282278
 20
6.48075
 42
0.071849
  0
VERTEX
  8
0
 10
4.271695
 20
6.489557
 42
0.206578
  0
VERTEX
  8
0
 10
4.258004
 20
6.490815
 42
0.029783
  0
VERTEX
  8
0
 10
4.252213
 20
6.474426
 42
-0.048432
  0
VERTEX
  8
0
 10
4.244417
 20
6.453984
 42
-0.121121
  0
VERTEX
  8
0
 10
4.228533
 20
6.436085
 42
-0.127299
  0
VERTEX
  8
0
 10
4.196874
 20
6.439367
 42
-0.125983
  0
VERTEX
  8
0
 10
4.178535
 20
6.452748
 42
-0.11782
  0
VERTEX
  8
0
 10
4.168006
 20
6.474149
  0
VERTEX
  8
0
 10
4.168006
 20
6.474149
 42
-0.036699
  0
VERTEX
  8
0
 10
4.161269
 20
6.049774
  0
VERTEX
  8
0
 10
4.161269
 20
6.049774
 42
0.020276
  0
VERTEX
  8
0
 10
4.21179
 20
6.039669
 42
-0.001168
  0
VERTEX
  8
0
 10
4.220809
 20
6.038425
 42
0.016363
  0
VERTEX
  8
0
 10
4.251758
 20
6.034763
 42
0.089928
  0
SEQEND
  8
0
  0
POLYLINE
  8
0
 66
1
 70
1
  0
VERTEX
  8
0
 10
4.213799
 20
6.497129
 42
-0.059063
  0
VERTEX
  8
0
 10
4.218169
 20
6.502577
 42
-0.017398
  0
VERTEX
  8
0
 10
4.223652
 20
6.507642
 42
0.051537
  0
VERTEX
  8
0
 10
4.23276
 20
6.516845
 42
0.166505
  0
VERTEX
  8
0
 10
4.236953
 20
6.528706
 42
0.185364
  0
VERTEX
  8
0
 10
4.211649
 20
6.542031
 42
0.049794
  0
VERTEX
  8
0
 10
4.182531
 20
6.54322
 42
-0.0076
  0
VERTEX
  8
0
 10
4.174156
 20
6.543066
 42
-0.033369
  0
VERTEX
  8
0
 10
4.167488
 20
6.54344
 42
0.252707
  0
VERTEX
  8
0
 10
4.174469
 20
6.520555
 42
0.085139
  0
VERTEX
  8
0
 10
4.194645
 20
6.508514
 42
-0.019564
  0
VERTEX
  8
0
 10
4.205113
 20
6.503398
 42
-0.068887
  0
SEQEND
  8
0
  0
POLYLINE
  8
0
 66
1
 70
1
  0
VERTEX
  8
0
 10
4.712692
 20
5.785628
 42
0.122834
  0
VERTEX
  8
0
 10
4.679285
 20
5.787603
 42
0.228685
  0
VERTEX
  8
0
 10
4.663237
 20
5.774702
 42
0.107225
  0
VERTEX
  8
0
 10
4.658775
 20
5.751691
 42
0.024561
  0
VERTEX
  8
0
 10
4.66013
 20
5.723339
 42
-0.032323
  0
VERTEX
  8
0
 10
4.661377
 20
5.690131
 42
-0.142006
  0
VERTEX
  8
0
 10
4.65375
 20
5.663536
 42
0.020219
  0
VERTEX
  8
0
 10
5.076857
 20
5.647282
 42
-0.026353
  0
VERTEX
  8
0
 10
5.546286
 20
5.625646
 42
0.154406
  0
VERTEX
  8
0
 10
5.562864
 20
5.687481
 42
0.106345
  0
VERTEX
  8
0
 10
5.546286
 20
5.747738
 42
0.027139
  0
VERTEX
  8
0
 10
5.012297
 20
5.776806
 42
-0.008785
  0
SEQEND
  8
0
  0
POLYLINE
  8
0
 66
1
 70
1
  0
VERTEX
  8
0
 10
4.773737
 20
3.958456
 42
-0.049875
  0
VERTEX
  8
0
 10
4.777234
 20
4.003514
 42
-0.017104
  0
VERTEX
  8
0
 10
4.786579
 20
4.046836
 42
0.024942
  0
VERTEX
  8
0
 10
4.796917
 20
4.0972
 42
0.07593
  0
VERTEX
  8
0
 10
4.796893
 20
4.14791
 42
0.211499
  0
VERTEX
  8
0
 10
4.753946
 20
4.076789
 42
0.053171
  0
VERTEX
  8
0
 10
4.750047
 20
3.986447
 42
-0.006806
  0
VERTEX
  8
0
 10
4.750582
 20
3.958456
  0
SEQEND
  8
0
  0
POLYLINE
  8
0
 66
1
 70
1
  0
VERTEX
  8
0
 10
4.782158
 20
3.844783
 42
-0.132694
  0
VERTEX
  8
0
 10
4.776576
 20
3.855231
 42
-0.037004
  0
VERTEX
  8
0
 10
4.774497
 20
3.868014
 42
0.023292
  0
VERTEX
  8
0
 10
4.773002
 20
3.878353
 42
0.080793
  0
VERTEX
  8
0
 10
4.769714
 20
3.887495
 42
0.136962
  0
VERTEX
  8
0
 10
4.762838
 20
3.894246
 42
0.112119
  0
VERTEX
  8
0
 10
4.750582
 20
3.89741
  0
VERTEX
  8
0
 10
4.750582
 20
3.821628
 42
-0.076233
  0
VERTEX
  8
0
 10
4.760861
 20
3.795386
 42
-0.022421
  0
VERTEX
  8
0
 10
4.766239
 20
3.76615
 42
0.050795
  0
VERTEX
  8
0
 10
4.774821
 20
3.727119
 42
0.208161
  0
VERTEX
  8
0
 10
4.796893
 20
3.70164
 42
0.131369
  0
VERTEX
  8
0
 10
4.799473
 20
3.734674
 42
0.042624
  0
VERTEX
  8
0
 10
4.790147
 20
3.767466
 42
-0.043262
  0
VERTEX
  8
0
 10
4.779879
 20
3.803972
 42
-0.115318
  0
SEQEND
  8
0
  0
POLYLINE
  8
0
 66
1
 70
1
  0
VERTEX
  8
0
 10
4.843204
 20
4.110019
 42
0.083103
  0
VERTEX
  8
0
 10
4.795051
 20
3.924774
 42
0.218864
  0
VERTEX
  8
0
 10
4.849519
 20
3.745847
 42
0.271271
  0
VERTEX
  8
0
 10
4.923195
 20
3.747951
 42
0.140373
  0
VERTEX
  8
0
 10
4.971611
 20
3.806892
 42
0.102308
  0
VERTEX
  8
0
 10
4.995293
 20
3.969771
 42
0.184628
  0
VERTEX
  8
0
 10
4.933721
 20
4.124753
 42
-0.019135
  0
VERTEX
  8
0
 10
4.913527
 20
4.128328
 42
0.083834
  0
VERTEX
  8
0
 10
4.876155
 20
4.13186
 42
0.219633
  0
SEQEND
  8
0
  0
POLYLINE
  8
0
 66
1
 70
1
  0
VERTEX
  8
0
 10
4.910565
 20
3.792157
 42
0.053242
  0
VERTEX
  8
0
 10
4.904875
 20
3.787274
 42
0.016287
  0
VERTEX
  8
0
 10
4.899693
 20
3.781427
 42
-0.077947
  0
VERTEX
  8
0
 10
4.888324
 20
3.770456
 42
-0.23583
  0
VERTEX
  8
0
 10
4.872675
 20
3.769003
 42
-0.169515
  0
VERTEX
  8
0
 10
4.821891
 20
3.923196
 42
-0.135407
  0
VERTEX
  8
0
 10
4.864254
 20
4.080547
 42
0.045123
  0
VERTEX
  8
0
 10
4.873132
 20
4.087533
 42
-0.069272
  0
VERTEX
  8
0
 10
4.88374
 20
4.095392
 42
-0.245525
  0
VERTEX
  8
0
 10
4.895831
 20
4.095283
 42
-0.173505
  0
VERTEX
  8
0
 10
4.946614
 20
3.946088
 42
-0.121757
  0
SEQEND
  8
0
  0
POLYLINE
  8
0
 66
1
 70
1
  0
VERTEX
  8
0
 10
4.902144
 20
4.314207
 42
0.097096
  0
VERTEX
  8
0
 10
4.835573
 20
4.27237
 42
0.215389
  0
VERTEX
  8
0
 10
4.805314
 20
4.200535
  0
VERTEX
  8
0
 10
4.834783
 20
4.200535
 42
-0.098252
  0
VERTEX
  8
0
 10
4.849516
 20
4.223682
 42
-0.026613
  0
VERTEX
  8
0
 10
4.871306
 20
4.244653
 42
0.071392
  0
VERTEX
  8
0
 10
4.901285
 20
4.27679
 42
0.289635
  0
SEQEND
  8
0
  0
POLYLINE
  8
0
 66
1
 70
1
  0
VERTEX
  8
0
 10
4.820049
 20
3.655329
 42
0.157164
  0
VERTEX
  8
0
 10
4.819029
 20
3.62507
 42
0.099905
  0
VERTEX
  8
0
 10
4.833995
 20
3.596389
 42
0.12846
  0
VERTEX
  8
0
 10
4.88741
 20
3.556393
 42
0.152584
  0
VERTEX
  8
0
 10
4.888589
 20
3.577727
 42
0.096209
  0
VERTEX
  8
0
 10
4.878779
 20
3.597712
 42
0.055591
  0
VERTEX
  8
0
 10
4.843276
 20
3.633321
 42
-0.036908
  0
SEQEND
  8
0
  0
POLYLINE
  8
0
 66
1
 70
1
  0
VERTEX
  8
0
 10
4.857939
 20
6.604487
 42
0.143615
  0
VERTEX
  8
0
 10
4.835167
 20
6.552754
 42
0.052903
  0
VERTEX
  8
0
 10
4.835103
 20
6.499162
 42
-0.013944
  0
VERTEX
  8
0
 10
4.836493
 20
6.471623
 42
-0.04298
  0
VERTEX
  8
0
 10
4.834783
 20
6.444504
 42
-0.040997
  0
VERTEX
  8
0
 10
4.852472
 20
6.357824
 42
-0.011508
  0
VERTEX
  8
0
 10
4.862202
 20
6.261491
 42
0.029147
  0
VERTEX
  8
0
 10
4.881281
 20
6.107967
 42
0.115092
  0
VERTEX
  8
0
 10
4.933387
 20
5.982412
 42
0.017965
  0
VERTEX
  8
0
 10
5.363094
 20
5.99607
 42
-0.006985
  0
VERTEX
  8
0
 10
5.64365
 20
6.008921
 42
0.133053
  0
VERTEX
  8
0
 10
5.570443
 20
6.045652
 42
0.052427
  0
VERTEX
  8
0
 10
5.462332
 20
6.058871
 42
0.026909
  0
VERTEX
  8
0
 10
5.196567
 20
6.04681
 42
-0.011689
  0
VERTEX
  8
0
 10
5.032657
 20
6.036128
 42
-0.110546
  0
VERTEX
  8
0
 10
4.969506
 20
6.033496
 42
-0.173383
  0
VERTEX
  8
0
 10
4.918986
 20
6.065597
  0
VERTEX
  8
0
 10
4.864254
 20
6.429768
 42
-0.054517
  0
VERTEX
  8
0
 10
5.112912
 20
6.432137
 42
-0.027227
  0
VERTEX
  8
0
 10
5.356833
 20
6.391878
 42
0.121078
  0
VERTEX
  8
0
 10
5.361286
 20
6.436015
 42
0.210911
  0
VERTEX
  8
0
 10
5.34515
 20
6.459708
 42
0.10285
  0
VERTEX
  8
0
 10
5.314328
 20
6.469823
 42
0.023687
  0
VERTEX
  8
0
 10
5.274725
 20
6.473231
 42
-0.041943
  0
VERTEX
  8
0
 10
5.21577
 20
6.479809
 42
-0.155138
  0
VERTEX
  8
0
 10
5.167381
 20
6.505551
 42
0.024634
  0
VERTEX
  8
0
 10
5.214468
 20
6.523038
 42
-0.001999
  0
VERTEX
  8
0
 10
5.228426
 20
6.528706
 42
-0.136796
  0
VERTEX
  8
0
 10
5.22288
 20
6.551197
 42
-0.172432
  0
VERTEX
  8
0
 10
5.230041
 20
6.567
 42
-0.083469
  0
VERTEX
  8
0
 10
5.245725
 20
6.578365
 42
-0.021569
  0
VERTEX
  8
0
 10
5.265751
 20
6.587546
 42
0.025379
  0
VERTEX
  8
0
 10
5.287577
 20
6.597684
 42
0.098877
  0
VERTEX
  8
0
 10
5.304207
 20
6.610803
  0
VERTEX
  8
0
 10
5.525236
 20
6.604487
  0
VERTEX
  8
0
 10
5.525236
 20
6.549757
 42
0.036364
  0
VERTEX
  8
0
 10
5.561205
 20
6.436567
 42
-0.035703
  0
VERTEX
  8
0
 10
5.600258
 20
6.313345
 42
-0.1166
  0
VERTEX
  8
0
 10
5.601018
 20
6.18769
 42
0.077758
  0
VERTEX
  8
0
 10
5.607378
 20
6.161507
 42
0.024617
  0
VERTEX
  8
0
 10
5.618693
 20
6.137395
 42
-0.023973
  0
VERTEX
  8
0
 10
5.627519
 20
6.118765
 42
-0.117648
  0
VERTEX
  8
0
 10
5.630488
 20
6.103489
 42
0.244314
  0
VERTEX
  8
0
 10
5.704646
 20
6.029244
 42
0.0808
  0
VERTEX
  8
0
 10
5.808849
 20
6.020409
 42
-0.02796
  0
VERTEX
  8
0
 10
5.872568
 20
6.019287
  0
VERTEX
  8
0
 10
5.880987
 20
6.050861
 42
-0.022123
  0
VERTEX
  8
0
 10
5.793442
 20
6.30568
 42
0.03595
  0
VERTEX
  8
0
 10
5.676799
 20
6.625538
 42
-0.006965
  0
VERTEX
  8
0
 10
5.431612
 20
6.626297
 42
0.03747
  0
SEQEND
  8
0
  0
POLYLINE
  8
0
 66
1
 70
1
  0
VERTEX
  8
0
 10
4.910565
 20
5.928769
 42
-0.018088
  0
VERTEX
  8
0
 10
5.359394
 20
5.89659
 42
0.012077
  0
VERTEX
  8
0
 10
5.721004
 20
5.867724
  0
VERTEX
  8
0
 10
5.721004
 20
5.884565
 42
-0.00535
  0
VERTEX
  8
0
 10
5.442943
 20
5.908436
 42
0.019002
  0
VERTEX
  8
0
 10
4.9253
 20
5.943506
  0
SEQEND
  8
0
  0
POLYLINE
  8
0
 66
1
 70
1
  0
VERTEX
  8
0
 10
5.318943
 20
4.413143
 42
0.136435
  0
VERTEX
  8
0
 10
5.295919
 20
4.372818
 42
0.064729
  0
VERTEX
  8
0
 10
5.287893
 20
4.316311
 42
0.081722
  0
VERTEX
  8
0
 10
5.304207
 20
4.200535
  0
VERTEX
  8
0
 10
5.767315
 20
4.208954
 42
0.084665
  0
VERTEX
  8
0
 10
5.784419
 20
4.312628
 42
0.140607
  0
VERTEX
  8
0
 10
5.758896
 20
4.413143
  0
SEQEND
  8
0
  0
POLYLINE
  8
0
 66
1
 70
1
  0
VERTEX
  8
0
 10
5.74416
 20
4.238425
  0
VERTEX
  8
0
 10
5.327363
 20
4.232111
  0
VERTEX
  8
0
 10
5.335783
 20
4.368937
 42
-0.059077
  0
VERTEX
  8
0
 10
5.73574
 20
4.375251
 42
-0.058355
  0
VERTEX
  8
0
 10
5.744064
 20
4.329571
 42
-0.023683
  0
VERTEX
  8
0
 10
5.744269
 20
4.285671
 42
0.016851
  0
SEQEND
  8
0
  0
POLYLINE
  8
0
 66
1
 70
1
  0
VERTEX
  8
0
 10
5.790471
 20
5.733001
 42
0.012882
  0
VERTEX
  8
0
 10
5.782897
 20
5.310907
 42
-0.021396
  0
VERTEX
  8
0
 10
5.767315
 20
4.777315
  0
VERTEX
  8
0
 10
5.811521
 20
4.762581
  0
VERTEX
  8
0
 10
7.085069
 20
4.777315
  0
VERTEX
  8
0
 10
7.463975
 20
4.785735
  0
VERTEX
  8
0
 10
7.487131
 20
5.695111
  0
VERTEX
  8
0
 10
7.472396
 20
5.709847
 42
-0.009269
  0
VERTEX
  8
0
 10
6.702556
 20
5.723022
 42
0.014053
  0
SEQEND
  8
0
  0
POLYLINE
  8
0
 66
1
 70
1
  0
VERTEX
  8
0
 10
7.408415
 20
4.852288
  0
VERTEX
  8
0
 10
7.056133
 20
4.844983
  0
VERTEX
  8
0
 10
5.872075
 20
4.832203
  0
VERTEX
  8
0
 10
5.830976
 20
4.844983
 42
0.022928
  0
VERTEX
  8
0
 10
5.845463
 20
5.307856
 42
-0.013806
  0
VERTEX
  8
0
 10
5.852504
 20
5.674015
 42
-0.013112
  0
VERTEX
  8
0
 10
6.700494
 20
5.665358
 42
0.008649
  0
VERTEX
  8
0
 10
7.416244
 20
5.653929
  0
VERTEX
  8
0
 10
7.429943
 20
5.641146
  0
SEQEND
  8
0
  0
POLYLINE
  8
0
 66
1
 70
1
  0
VERTEX
  8
0
 10
6.152538
 20
4.421564
  0
VERTEX
  8
0
 10
6.137801
 20
4.352097
 42
-0.046691
  0
VERTEX
  8
0
 10
6.144824
 20
4.331719
 42
0.071344
  0
VERTEX
  8
0
 10
6.154243
 20
4.306937
 42
0.233821
  0
VERTEX
  8
0
 10
6.175693
 20
4.293157
  0
VERTEX
  8
0
 10
6.478818
 20
4.299472
 42
0.117235
  0
VERTEX
  8
0
 10
6.494777
 20
4.347428
 42
0.041431
  0
VERTEX
  8
0
 10
6.494605
 20
4.395491
 42
-0.014669
  0
VERTEX
  8
0
 10
6.493554
 20
4.421564
  0
SEQEND
  8
0
  0
POLYLINE
  8
0
 66
1
 70
1
  0
VERTEX
  8
0
 10
6.781943
 20
4.427879
 42
-0.010814
  0
VERTEX
  8
0
 10
6.778925
 20
4.407779
 42
0.054758
  0
VERTEX
  8
0
 10
6.773743
 20
4.350159
 42
0.097845
  0
VERTEX
  8
0
 10
6.779761
 20
4.325056
 42
0.167616
  0
VERTEX
  8
0
 10
6.796679
 20
4.30789
  0
VERTEX
  8
0
 10
7.085069
 20
4.30789
 42
0.184047
  0
VERTEX
  8
0
 10
7.114013
 20
4.36499
 42
0.116589
  0
VERTEX
  8
0
 10
7.108225
 20
4.436299
  0
SEQEND
  8
0
  0
POLYLINE
  8
0
 66
1
 70
1
  0
VERTEX
  8
0
 10
7.516601
 20
4.451033
 42
0.159957
  0
VERTEX
  8
0
 10
7.484168
 20
4.422653
 42
0.105884
  0
VERTEX
  8
0
 10
7.47124
 20
4.380572
 42
0.059068
  0
VERTEX
  8
0
 10
7.477217
 20
4.278572
 42
-0.010701
  0
VERTEX
  8
0
 10
7.482176
 20
4.237757
 42
0.083161
  0
VERTEX
  8
0
 10
7.899815
 20
4.237757
 42
-0.01687
  0
VERTEX
  8
0
 10
7.908789
 20
4.282654
 42
0.059463
  0
VERTEX
  8
0
 10
7.921408
 20
4.371342
 42
0.201641
  0
VERTEX
  8
0
 10
7.889193
 20
4.451033
  0
SEQEND
  8
0
  0
POLYLINE
  8
0
 66
1
 70
1
  0
VERTEX
  8
0
 10
7.866037
 20
4.284736
  0
VERTEX
  8
0
 10
7.516601
 20
4.276317
  0
VERTEX
  8
0
 10
7.525022
 20
4.406829
 42
0.023717
  0
VERTEX
  8
0
 10
7.645325
 20
4.414425
 42
-0.023799
  0
VERTEX
  8
0
 10
7.761515
 20
4.421798
 42
-0.073727
  0
VERTEX
  8
0
 10
7.874458
 20
4.406829
 42
-0.068881
  0
VERTEX
  8
0
 10
7.874821
 20
4.380013
 42
-0.021849
  0
VERTEX
  8
0
 10
7.870173
 20
4.352542
 42
0.025608
  0
VERTEX
  8
0
 10
7.864861
 20
4.319944
 42
0.069527
  0
SEQEND
  8
0
  0
POLYLINE
  8
0
 66
1
 70
1
  0
VERTEX
  8
0
 10
7.789839
 20
5.099436
 42
0.132531
  0
VERTEX
  8
0
 10
7.80863
 20
5.132232
 42
0.065219
  0
VERTEX
  8
0
 10
7.814537
 20
5.175162
 42
0.040377
  0
VERTEX
  8
0
 10
7.80691
 20
5.263732
 42
-0.003089
  0
VERTEX
  8
0
 10
7.804575
 20
5.280469
 42
0.083332
  0
VERTEX
  8
0
 10
7.615122
 20
5.280469
  0
VERTEX
  8
0
 10
7.600386
 20
5.120486
 42
0.127819
  0
VERTEX
  8
0
 10
7.644036
 20
5.106924
 42
0.029757
  0
VERTEX
  8
0
 10
7.699238
 20
5.106276
 42
-0.018486
  0
VERTEX
  8
0
 10
7.746425
 20
5.106366
 42
-0.064983
  0
SEQEND
  8
0
  0
POLYLINE
  8
0
 66
1
 70
1
  0
VERTEX
  8
0
 10
7.650075
 20
5.250999
 42
0.043712
  0
VERTEX
  8
0
 10
7.668843
 20
5.251852
 42
0.014987
  0
VERTEX
  8
0
 10
7.687048
 20
5.25486
 42
-0.08197
  0
VERTEX
  8
0
 10
7.728411
 20
5.257984
 42
-0.169571
  0
VERTEX
  8
0
 10
7.772167
 20
5.234158
  0
VERTEX
  8
0
 10
7.763747
 20
5.143642
  0
VERTEX
  8
0
 10
7.641654
 20
5.143642
  0
SEQEND
  8
0
  0
ENDSEC
  0
EOF
